<svg width="332" height="538" viewBox="0 0 332 538" fill="none" xmlns="http://www.w3.org/2000/svg">
<rect x="0.5" width="331" height="538" fill="white"/>
<path d="M18.1932 76.802H238.388C243.911 76.802 248.388 81.2792 248.388 86.802V141.092C248.388 146.615 243.911 151.092 238.388 151.092H28.1932C22.6704 151.092 18.1932 146.615 18.1932 141.092V76.802Z" fill="#0C1B4D" fill-opacity="0.05"/>
<rect x="37.0273" y="96.6824" width="193.573" height="10.4634" fill="#0C1B4D" fill-opacity="0.15"/>
<rect x="37.0273" y="117.609" width="114.051" height="10.4634" fill="#0C1B4D" fill-opacity="0.15"/>
<path d="M171.831 159.724L165.596 165.959L162.762 163.125" stroke="#4A72FF" stroke-width="2" stroke-linecap="round" stroke-linejoin="round"/>
<path d="M183.368 166.324V159.764H184.198V162.514H187.248V159.764H188.088V166.324H187.248V163.234H184.198V166.324H183.368ZM191.702 166.444C191.308 166.444 190.938 166.344 190.592 166.144C190.252 165.944 189.975 165.654 189.762 165.274C189.555 164.894 189.452 164.437 189.452 163.904C189.452 163.357 189.555 162.894 189.762 162.514C189.975 162.134 190.252 161.844 190.592 161.644C190.938 161.444 191.308 161.344 191.702 161.344C192.102 161.344 192.472 161.444 192.812 161.644C193.152 161.844 193.425 162.134 193.632 162.514C193.845 162.894 193.952 163.357 193.952 163.904C193.952 164.437 193.845 164.894 193.632 165.274C193.425 165.654 193.152 165.944 192.812 166.144C192.472 166.344 192.102 166.444 191.702 166.444ZM191.702 165.764C192.122 165.764 192.458 165.594 192.712 165.254C192.972 164.907 193.102 164.457 193.102 163.904C193.102 163.344 192.972 162.89 192.712 162.544C192.458 162.197 192.122 162.024 191.702 162.024C191.288 162.024 190.952 162.197 190.692 162.544C190.432 162.89 190.302 163.344 190.302 163.904C190.302 164.457 190.432 164.907 190.692 165.254C190.952 165.594 191.288 165.764 191.702 165.764ZM194.732 168.494C194.585 168.494 194.452 168.48 194.332 168.454C194.205 168.427 194.098 168.397 194.012 168.364L194.182 167.744C194.242 167.764 194.312 167.78 194.392 167.794C194.472 167.814 194.555 167.824 194.642 167.824C194.882 167.824 195.042 167.737 195.122 167.564C195.202 167.397 195.242 167.167 195.242 166.874V161.464H196.062V166.874C196.062 167.367 195.962 167.76 195.762 168.054C195.562 168.347 195.218 168.494 194.732 168.494ZM195.642 160.464C195.482 160.464 195.348 160.417 195.242 160.324C195.142 160.224 195.092 160.09 195.092 159.924C195.092 159.764 195.142 159.634 195.242 159.534C195.348 159.434 195.482 159.384 195.642 159.384C195.802 159.384 195.932 159.434 196.032 159.534C196.138 159.634 196.192 159.764 196.192 159.924C196.192 160.09 196.138 160.224 196.032 160.324C195.932 160.417 195.802 160.464 195.642 160.464ZM199.672 166.444C199.239 166.444 198.846 166.344 198.492 166.144C198.139 165.937 197.859 165.644 197.652 165.264C197.446 164.884 197.342 164.43 197.342 163.904C197.342 163.37 197.446 162.914 197.652 162.534C197.866 162.154 198.139 161.86 198.472 161.654C198.806 161.447 199.156 161.344 199.522 161.344C200.142 161.344 200.619 161.55 200.952 161.964C201.292 162.377 201.462 162.93 201.462 163.624C201.462 163.71 201.459 163.797 201.452 163.884C201.452 163.964 201.446 164.034 201.432 164.094H198.152C198.186 164.607 198.346 165.017 198.632 165.324C198.926 165.63 199.306 165.784 199.772 165.784C200.006 165.784 200.219 165.75 200.412 165.684C200.612 165.61 200.802 165.517 200.982 165.404L201.272 165.944C201.066 166.077 200.829 166.194 200.562 166.294C200.302 166.394 200.006 166.444 199.672 166.444ZM198.142 163.504H200.742C200.742 163.01 200.636 162.637 200.422 162.384C200.216 162.124 199.922 161.994 199.542 161.994C199.202 161.994 198.896 162.127 198.622 162.394C198.356 162.654 198.196 163.024 198.142 163.504ZM202.513 168.024L202.313 167.544C202.6 167.417 202.823 167.247 202.983 167.034C203.143 166.827 203.22 166.59 203.213 166.324C203.2 166.33 203.183 166.334 203.163 166.334C203.143 166.334 203.127 166.334 203.113 166.334C202.953 166.334 202.813 166.287 202.693 166.194C202.58 166.094 202.523 165.95 202.523 165.764C202.523 165.584 202.583 165.444 202.703 165.344C202.823 165.237 202.967 165.184 203.133 165.184C203.347 165.184 203.513 165.27 203.633 165.444C203.76 165.617 203.823 165.854 203.823 166.154C203.823 166.58 203.707 166.954 203.473 167.274C203.24 167.6 202.92 167.85 202.513 168.024ZM208.276 166.444C207.869 166.444 207.529 166.324 207.256 166.084C206.989 165.837 206.856 165.497 206.856 165.064C206.856 164.53 207.092 164.124 207.566 163.844C208.046 163.557 208.802 163.357 209.836 163.244C209.836 163.037 209.806 162.84 209.746 162.654C209.692 162.467 209.592 162.317 209.446 162.204C209.306 162.084 209.102 162.024 208.836 162.024C208.556 162.024 208.292 162.077 208.046 162.184C207.799 162.29 207.579 162.41 207.386 162.544L207.066 161.974C207.292 161.827 207.569 161.687 207.896 161.554C208.229 161.414 208.589 161.344 208.976 161.344C209.569 161.344 209.999 161.527 210.266 161.894C210.532 162.254 210.666 162.737 210.666 163.344V166.324H209.986L209.916 165.744H209.886C209.659 165.93 209.409 166.094 209.136 166.234C208.869 166.374 208.582 166.444 208.276 166.444ZM208.516 165.784C208.749 165.784 208.969 165.727 209.176 165.614C209.382 165.5 209.602 165.34 209.836 165.134V163.784C209.029 163.884 208.462 164.034 208.136 164.234C207.816 164.434 207.656 164.69 207.656 165.004C207.656 165.277 207.739 165.477 207.906 165.604C208.072 165.724 208.276 165.784 208.516 165.784ZM209.146 160.594L207.576 159.064L208.156 158.514L209.566 160.184L209.146 160.594ZM213.465 166.444C213.118 166.444 212.788 166.38 212.475 166.254C212.161 166.12 211.888 165.96 211.655 165.774L212.065 165.224C212.278 165.39 212.498 165.53 212.725 165.644C212.951 165.75 213.208 165.804 213.495 165.804C213.815 165.804 214.055 165.73 214.215 165.584C214.375 165.43 214.455 165.25 214.455 165.044C214.455 164.877 214.398 164.737 214.285 164.624C214.178 164.51 214.038 164.417 213.865 164.344C213.698 164.264 213.525 164.19 213.345 164.124C213.118 164.037 212.895 163.94 212.675 163.834C212.455 163.72 212.275 163.577 212.135 163.404C211.995 163.224 211.925 162.997 211.925 162.724C211.925 162.33 212.071 162.004 212.365 161.744C212.665 161.477 213.078 161.344 213.605 161.344C213.905 161.344 214.185 161.397 214.445 161.504C214.705 161.61 214.928 161.74 215.115 161.894L214.715 162.414C214.548 162.287 214.375 162.184 214.195 162.104C214.015 162.024 213.818 161.984 213.605 161.984C213.298 161.984 213.071 162.054 212.925 162.194C212.785 162.334 212.715 162.497 212.715 162.684C212.715 162.837 212.765 162.964 212.865 163.064C212.965 163.157 213.095 163.24 213.255 163.314C213.415 163.38 213.585 163.45 213.765 163.524C213.998 163.61 214.228 163.71 214.455 163.824C214.681 163.93 214.868 164.077 215.015 164.264C215.168 164.444 215.245 164.687 215.245 164.994C215.245 165.254 215.175 165.494 215.035 165.714C214.901 165.934 214.701 166.11 214.435 166.244C214.175 166.377 213.851 166.444 213.465 166.444ZM218.356 166.324V165.644H219.816V160.944H218.656V160.414C218.949 160.36 219.203 160.297 219.416 160.224C219.636 160.144 219.833 160.05 220.006 159.944H220.636V165.644H221.956V166.324H218.356ZM224.877 166.444C224.37 166.444 223.95 166.354 223.617 166.174C223.283 165.994 223.007 165.794 222.787 165.574L223.187 165.034C223.38 165.22 223.603 165.39 223.857 165.544C224.11 165.69 224.423 165.764 224.797 165.764C225.19 165.764 225.52 165.634 225.787 165.374C226.06 165.107 226.197 164.75 226.197 164.304C226.197 163.864 226.073 163.52 225.827 163.274C225.58 163.027 225.25 162.904 224.837 162.904C224.617 162.904 224.427 162.937 224.267 163.004C224.113 163.07 223.94 163.167 223.747 163.294L223.307 163.014L223.517 159.944H226.707V160.654H224.237L224.067 162.544C224.22 162.464 224.373 162.4 224.527 162.354C224.68 162.307 224.853 162.284 225.047 162.284C225.413 162.284 225.743 162.357 226.037 162.504C226.337 162.644 226.577 162.86 226.757 163.154C226.937 163.447 227.027 163.824 227.027 164.284C227.027 164.744 226.923 165.137 226.717 165.464C226.517 165.784 226.253 166.027 225.927 166.194C225.6 166.36 225.25 166.444 224.877 166.444ZM228.757 162.834C228.591 162.834 228.447 162.777 228.327 162.664C228.214 162.544 228.157 162.394 228.157 162.214C228.157 162.02 228.214 161.867 228.327 161.754C228.447 161.634 228.591 161.574 228.757 161.574C228.917 161.574 229.054 161.634 229.167 161.754C229.287 161.867 229.347 162.02 229.347 162.214C229.347 162.394 229.287 162.544 229.167 162.664C229.054 162.777 228.917 162.834 228.757 162.834ZM228.757 166.444C228.591 166.444 228.447 166.387 228.327 166.274C228.214 166.154 228.157 166.004 228.157 165.824C228.157 165.63 228.214 165.477 228.327 165.364C228.447 165.244 228.591 165.184 228.757 165.184C228.917 165.184 229.054 165.244 229.167 165.364C229.287 165.477 229.347 165.63 229.347 165.824C229.347 166.004 229.287 166.154 229.167 166.274C229.054 166.387 228.917 166.444 228.757 166.444ZM232.358 166.444C231.851 166.444 231.428 166.354 231.088 166.174C230.748 165.987 230.471 165.777 230.258 165.544L230.678 165.004C230.871 165.204 231.098 165.38 231.358 165.534C231.618 165.687 231.934 165.764 232.308 165.764C232.694 165.764 233.011 165.657 233.258 165.444C233.504 165.23 233.628 164.947 233.628 164.594C233.628 164.34 233.561 164.12 233.428 163.934C233.301 163.74 233.088 163.59 232.788 163.484C232.494 163.377 232.094 163.324 231.588 163.324V162.694C232.041 162.694 232.398 162.64 232.658 162.534C232.924 162.427 233.114 162.284 233.228 162.104C233.341 161.924 233.398 161.724 233.398 161.504C233.398 161.19 233.298 160.944 233.098 160.764C232.904 160.584 232.638 160.494 232.298 160.494C232.031 160.494 231.784 160.554 231.558 160.674C231.338 160.794 231.131 160.95 230.938 161.144L230.498 160.624C230.744 160.39 231.018 160.2 231.318 160.054C231.618 159.9 231.954 159.824 232.328 159.824C232.881 159.824 233.338 159.967 233.698 160.254C234.058 160.534 234.238 160.93 234.238 161.444C234.238 161.83 234.131 162.147 233.918 162.394C233.704 162.64 233.424 162.83 233.078 162.964V163.004C233.464 163.09 233.791 163.274 234.058 163.554C234.324 163.827 234.458 164.184 234.458 164.624C234.458 164.997 234.364 165.32 234.178 165.594C233.991 165.867 233.738 166.077 233.418 166.224C233.104 166.37 232.751 166.444 232.358 166.444ZM237.458 166.444C236.818 166.444 236.315 166.157 235.948 165.584C235.588 165.004 235.408 164.18 235.408 163.114C235.408 162.04 235.588 161.224 235.948 160.664C236.315 160.104 236.818 159.824 237.458 159.824C238.092 159.824 238.588 160.104 238.948 160.664C239.315 161.224 239.498 162.04 239.498 163.114C239.498 164.18 239.315 165.004 238.948 165.584C238.588 166.157 238.092 166.444 237.458 166.444ZM237.458 165.784C237.832 165.784 238.132 165.574 238.358 165.154C238.585 164.727 238.698 164.047 238.698 163.114C238.698 162.18 238.585 161.51 238.358 161.104C238.132 160.69 237.832 160.484 237.458 160.484C237.085 160.484 236.782 160.69 236.548 161.104C236.322 161.51 236.208 162.18 236.208 163.114C236.208 164.047 236.322 164.727 236.548 165.154C236.782 165.574 237.085 165.784 237.458 165.784Z" fill="black" fill-opacity="0.6"/>
<path d="M18.1932 336.294H238.388C243.911 336.294 248.388 340.771 248.388 346.294V425.696C248.388 431.219 243.911 435.696 238.388 435.696H28.1932C22.6704 435.696 18.1932 431.219 18.1932 425.696V336.294Z" fill="#0C1B4D" fill-opacity="0.05"/>
<path d="M37.0273 356.174H225.368C228.258 356.174 230.6 358.517 230.6 361.406C230.6 364.295 228.258 366.638 225.368 366.638H37.0273V356.174Z" fill="#0C1B4D" fill-opacity="0.15"/>
<path d="M37.0273 377.101H225.368C228.258 377.101 230.6 379.444 230.6 382.333C230.6 385.222 228.258 387.565 225.368 387.565H37.0273V377.101Z" fill="#0C1B4D" fill-opacity="0.15"/>
<path d="M37.0273 398.028H142.708C145.597 398.028 147.939 400.37 147.939 403.26C147.939 406.149 145.597 408.491 142.708 408.491H37.0273V398.028Z" fill="#0C1B4D" fill-opacity="0.15"/>
<path d="M171.831 445.375L165.596 451.609L162.762 448.775" stroke="#4A72FF" stroke-width="2" stroke-linecap="round" stroke-linejoin="round"/>
<path d="M183.368 451.974V445.414H184.198V448.164H187.248V445.414H188.088V451.974H187.248V448.884H184.198V451.974H183.368ZM191.702 452.094C191.308 452.094 190.938 451.994 190.592 451.794C190.252 451.594 189.975 451.304 189.762 450.924C189.555 450.544 189.452 450.087 189.452 449.554C189.452 449.007 189.555 448.544 189.762 448.164C189.975 447.784 190.252 447.494 190.592 447.294C190.938 447.094 191.308 446.994 191.702 446.994C192.102 446.994 192.472 447.094 192.812 447.294C193.152 447.494 193.425 447.784 193.632 448.164C193.845 448.544 193.952 449.007 193.952 449.554C193.952 450.087 193.845 450.544 193.632 450.924C193.425 451.304 193.152 451.594 192.812 451.794C192.472 451.994 192.102 452.094 191.702 452.094ZM191.702 451.414C192.122 451.414 192.458 451.244 192.712 450.904C192.972 450.557 193.102 450.107 193.102 449.554C193.102 448.994 192.972 448.541 192.712 448.194C192.458 447.847 192.122 447.674 191.702 447.674C191.288 447.674 190.952 447.847 190.692 448.194C190.432 448.541 190.302 448.994 190.302 449.554C190.302 450.107 190.432 450.557 190.692 450.904C190.952 451.244 191.288 451.414 191.702 451.414ZM194.732 454.144C194.585 454.144 194.452 454.131 194.332 454.104C194.205 454.077 194.098 454.047 194.012 454.014L194.182 453.394C194.242 453.414 194.312 453.431 194.392 453.444C194.472 453.464 194.555 453.474 194.642 453.474C194.882 453.474 195.042 453.387 195.122 453.214C195.202 453.047 195.242 452.817 195.242 452.524V447.114H196.062V452.524C196.062 453.017 195.962 453.411 195.762 453.704C195.562 453.997 195.218 454.144 194.732 454.144ZM195.642 446.114C195.482 446.114 195.348 446.067 195.242 445.974C195.142 445.874 195.092 445.741 195.092 445.574C195.092 445.414 195.142 445.284 195.242 445.184C195.348 445.084 195.482 445.034 195.642 445.034C195.802 445.034 195.932 445.084 196.032 445.184C196.138 445.284 196.192 445.414 196.192 445.574C196.192 445.741 196.138 445.874 196.032 445.974C195.932 446.067 195.802 446.114 195.642 446.114ZM199.672 452.094C199.239 452.094 198.846 451.994 198.492 451.794C198.139 451.587 197.859 451.294 197.652 450.914C197.446 450.534 197.342 450.081 197.342 449.554C197.342 449.021 197.446 448.564 197.652 448.184C197.866 447.804 198.139 447.511 198.472 447.304C198.806 447.097 199.156 446.994 199.522 446.994C200.142 446.994 200.619 447.201 200.952 447.614C201.292 448.027 201.462 448.581 201.462 449.274C201.462 449.361 201.459 449.447 201.452 449.534C201.452 449.614 201.446 449.684 201.432 449.744H198.152C198.186 450.257 198.346 450.667 198.632 450.974C198.926 451.281 199.306 451.434 199.772 451.434C200.006 451.434 200.219 451.401 200.412 451.334C200.612 451.261 200.802 451.167 200.982 451.054L201.272 451.594C201.066 451.727 200.829 451.844 200.562 451.944C200.302 452.044 200.006 452.094 199.672 452.094ZM198.142 449.154H200.742C200.742 448.661 200.636 448.287 200.422 448.034C200.216 447.774 199.922 447.644 199.542 447.644C199.202 447.644 198.896 447.777 198.622 448.044C198.356 448.304 198.196 448.674 198.142 449.154ZM202.513 453.674L202.313 453.194C202.6 453.067 202.823 452.897 202.983 452.684C203.143 452.477 203.22 452.241 203.213 451.974C203.2 451.981 203.183 451.984 203.163 451.984C203.143 451.984 203.127 451.984 203.113 451.984C202.953 451.984 202.813 451.937 202.693 451.844C202.58 451.744 202.523 451.601 202.523 451.414C202.523 451.234 202.583 451.094 202.703 450.994C202.823 450.887 202.967 450.834 203.133 450.834C203.347 450.834 203.513 450.921 203.633 451.094C203.76 451.267 203.823 451.504 203.823 451.804C203.823 452.231 203.707 452.604 203.473 452.924C203.24 453.251 202.92 453.501 202.513 453.674ZM208.276 452.094C207.869 452.094 207.529 451.974 207.256 451.734C206.989 451.487 206.856 451.147 206.856 450.714C206.856 450.181 207.092 449.774 207.566 449.494C208.046 449.207 208.802 449.007 209.836 448.894C209.836 448.687 209.806 448.491 209.746 448.304C209.692 448.117 209.592 447.967 209.446 447.854C209.306 447.734 209.102 447.674 208.836 447.674C208.556 447.674 208.292 447.727 208.046 447.834C207.799 447.941 207.579 448.061 207.386 448.194L207.066 447.624C207.292 447.477 207.569 447.337 207.896 447.204C208.229 447.064 208.589 446.994 208.976 446.994C209.569 446.994 209.999 447.177 210.266 447.544C210.532 447.904 210.666 448.387 210.666 448.994V451.974H209.986L209.916 451.394H209.886C209.659 451.581 209.409 451.744 209.136 451.884C208.869 452.024 208.582 452.094 208.276 452.094ZM208.516 451.434C208.749 451.434 208.969 451.377 209.176 451.264C209.382 451.151 209.602 450.991 209.836 450.784V449.434C209.029 449.534 208.462 449.684 208.136 449.884C207.816 450.084 207.656 450.341 207.656 450.654C207.656 450.927 207.739 451.127 207.906 451.254C208.072 451.374 208.276 451.434 208.516 451.434ZM209.146 446.244L207.576 444.714L208.156 444.164L209.566 445.834L209.146 446.244ZM213.465 452.094C213.118 452.094 212.788 452.031 212.475 451.904C212.161 451.771 211.888 451.611 211.655 451.424L212.065 450.874C212.278 451.041 212.498 451.181 212.725 451.294C212.951 451.401 213.208 451.454 213.495 451.454C213.815 451.454 214.055 451.381 214.215 451.234C214.375 451.081 214.455 450.901 214.455 450.694C214.455 450.527 214.398 450.387 214.285 450.274C214.178 450.161 214.038 450.067 213.865 449.994C213.698 449.914 213.525 449.841 213.345 449.774C213.118 449.687 212.895 449.591 212.675 449.484C212.455 449.371 212.275 449.227 212.135 449.054C211.995 448.874 211.925 448.647 211.925 448.374C211.925 447.981 212.071 447.654 212.365 447.394C212.665 447.127 213.078 446.994 213.605 446.994C213.905 446.994 214.185 447.047 214.445 447.154C214.705 447.261 214.928 447.391 215.115 447.544L214.715 448.064C214.548 447.937 214.375 447.834 214.195 447.754C214.015 447.674 213.818 447.634 213.605 447.634C213.298 447.634 213.071 447.704 212.925 447.844C212.785 447.984 212.715 448.147 212.715 448.334C212.715 448.487 212.765 448.614 212.865 448.714C212.965 448.807 213.095 448.891 213.255 448.964C213.415 449.031 213.585 449.101 213.765 449.174C213.998 449.261 214.228 449.361 214.455 449.474C214.681 449.581 214.868 449.727 215.015 449.914C215.168 450.094 215.245 450.337 215.245 450.644C215.245 450.904 215.175 451.144 215.035 451.364C214.901 451.584 214.701 451.761 214.435 451.894C214.175 452.027 213.851 452.094 213.465 452.094ZM218.356 451.974V451.294H219.816V446.594H218.656V446.064C218.949 446.011 219.203 445.947 219.416 445.874C219.636 445.794 219.833 445.701 220.006 445.594H220.636V451.294H221.956V451.974H218.356ZM224.877 452.094C224.37 452.094 223.95 452.004 223.617 451.824C223.283 451.644 223.007 451.444 222.787 451.224L223.187 450.684C223.38 450.871 223.603 451.041 223.857 451.194C224.11 451.341 224.423 451.414 224.797 451.414C225.19 451.414 225.52 451.284 225.787 451.024C226.06 450.757 226.197 450.401 226.197 449.954C226.197 449.514 226.073 449.171 225.827 448.924C225.58 448.677 225.25 448.554 224.837 448.554C224.617 448.554 224.427 448.587 224.267 448.654C224.113 448.721 223.94 448.817 223.747 448.944L223.307 448.664L223.517 445.594H226.707V446.304H224.237L224.067 448.194C224.22 448.114 224.373 448.051 224.527 448.004C224.68 447.957 224.853 447.934 225.047 447.934C225.413 447.934 225.743 448.007 226.037 448.154C226.337 448.294 226.577 448.511 226.757 448.804C226.937 449.097 227.027 449.474 227.027 449.934C227.027 450.394 226.923 450.787 226.717 451.114C226.517 451.434 226.253 451.677 225.927 451.844C225.6 452.011 225.25 452.094 224.877 452.094ZM228.757 448.484C228.591 448.484 228.447 448.427 228.327 448.314C228.214 448.194 228.157 448.044 228.157 447.864C228.157 447.671 228.214 447.517 228.327 447.404C228.447 447.284 228.591 447.224 228.757 447.224C228.917 447.224 229.054 447.284 229.167 447.404C229.287 447.517 229.347 447.671 229.347 447.864C229.347 448.044 229.287 448.194 229.167 448.314C229.054 448.427 228.917 448.484 228.757 448.484ZM228.757 452.094C228.591 452.094 228.447 452.037 228.327 451.924C228.214 451.804 228.157 451.654 228.157 451.474C228.157 451.281 228.214 451.127 228.327 451.014C228.447 450.894 228.591 450.834 228.757 450.834C228.917 450.834 229.054 450.894 229.167 451.014C229.287 451.127 229.347 451.281 229.347 451.474C229.347 451.654 229.287 451.804 229.167 451.924C229.054 452.037 228.917 452.094 228.757 452.094ZM232.338 452.094C231.831 452.094 231.411 452.004 231.078 451.824C230.744 451.644 230.468 451.444 230.248 451.224L230.648 450.684C230.841 450.871 231.064 451.041 231.318 451.194C231.571 451.341 231.884 451.414 232.258 451.414C232.651 451.414 232.981 451.284 233.248 451.024C233.521 450.757 233.658 450.401 233.658 449.954C233.658 449.514 233.534 449.171 233.288 448.924C233.041 448.677 232.711 448.554 232.298 448.554C232.078 448.554 231.888 448.587 231.728 448.654C231.574 448.721 231.401 448.817 231.208 448.944L230.768 448.664L230.978 445.594H234.168V446.304H231.698L231.528 448.194C231.681 448.114 231.834 448.051 231.988 448.004C232.141 447.957 232.314 447.934 232.508 447.934C232.874 447.934 233.204 448.007 233.498 448.154C233.798 448.294 234.038 448.511 234.218 448.804C234.398 449.097 234.488 449.474 234.488 449.934C234.488 450.394 234.384 450.787 234.178 451.114C233.978 451.434 233.714 451.677 233.388 451.844C233.061 452.011 232.711 452.094 232.338 452.094ZM237.458 452.094C236.818 452.094 236.315 451.807 235.948 451.234C235.588 450.654 235.408 449.831 235.408 448.764C235.408 447.691 235.588 446.874 235.948 446.314C236.315 445.754 236.818 445.474 237.458 445.474C238.092 445.474 238.588 445.754 238.948 446.314C239.315 446.874 239.498 447.691 239.498 448.764C239.498 449.831 239.315 450.654 238.948 451.234C238.588 451.807 238.092 452.094 237.458 452.094ZM237.458 451.434C237.832 451.434 238.132 451.224 238.358 450.804C238.585 450.377 238.698 449.697 238.698 448.764C238.698 447.831 238.585 447.161 238.358 446.754C238.132 446.341 237.832 446.134 237.458 446.134C237.085 446.134 236.782 446.341 236.548 446.754C236.322 447.161 236.208 447.831 236.208 448.764C236.208 449.697 236.322 450.377 236.548 450.804C236.782 451.224 237.085 451.434 237.458 451.434Z" fill="black" fill-opacity="0.6"/>
<path d="M83.0662 216.548C83.0662 211.025 87.5434 206.548 93.0662 206.548H313.261V270.838C313.261 276.361 308.784 280.838 303.261 280.838H93.0662C87.5434 280.838 83.0662 276.361 83.0662 270.838V216.548Z" fill="#4A72FF"/>
<rect x="101.9" y="226.428" width="193.573" height="10.4634" fill="white" fill-opacity="0.25"/>
<rect x="101.9" y="247.355" width="60.6876" height="10.4634" fill="white" fill-opacity="0.25"/>
<path d="M94.4016 289.47L88.1671 295.705L85.3333 292.871" stroke="#4A72FF" stroke-width="2" stroke-linecap="round" stroke-linejoin="round"/>
<path d="M105.939 296.07V289.51H106.769V292.26H109.819V289.51H110.659V296.07H109.819V292.98H106.769V296.07H105.939ZM114.273 296.19C113.879 296.19 113.509 296.09 113.163 295.89C112.823 295.69 112.546 295.4 112.333 295.02C112.126 294.64 112.023 294.183 112.023 293.65C112.023 293.103 112.126 292.64 112.333 292.26C112.546 291.88 112.823 291.59 113.163 291.39C113.509 291.19 113.879 291.09 114.273 291.09C114.673 291.09 115.043 291.19 115.383 291.39C115.723 291.59 115.996 291.88 116.203 292.26C116.416 292.64 116.523 293.103 116.523 293.65C116.523 294.183 116.416 294.64 116.203 295.02C115.996 295.4 115.723 295.69 115.383 295.89C115.043 296.09 114.673 296.19 114.273 296.19ZM114.273 295.51C114.693 295.51 115.029 295.34 115.283 295C115.543 294.653 115.673 294.203 115.673 293.65C115.673 293.09 115.543 292.636 115.283 292.29C115.029 291.943 114.693 291.77 114.273 291.77C113.859 291.77 113.523 291.943 113.263 292.29C113.003 292.636 112.873 293.09 112.873 293.65C112.873 294.203 113.003 294.653 113.263 295C113.523 295.34 113.859 295.51 114.273 295.51ZM117.303 298.24C117.156 298.24 117.023 298.226 116.903 298.2C116.776 298.173 116.669 298.143 116.583 298.11L116.753 297.49C116.813 297.51 116.883 297.526 116.963 297.54C117.043 297.56 117.126 297.57 117.213 297.57C117.453 297.57 117.613 297.483 117.693 297.31C117.773 297.143 117.813 296.913 117.813 296.62V291.21H118.633V296.62C118.633 297.113 118.533 297.506 118.333 297.8C118.133 298.093 117.789 298.24 117.303 298.24ZM118.213 290.21C118.053 290.21 117.919 290.163 117.813 290.07C117.713 289.97 117.663 289.836 117.663 289.67C117.663 289.51 117.713 289.38 117.813 289.28C117.919 289.18 118.053 289.13 118.213 289.13C118.373 289.13 118.503 289.18 118.603 289.28C118.709 289.38 118.763 289.51 118.763 289.67C118.763 289.836 118.709 289.97 118.603 290.07C118.503 290.163 118.373 290.21 118.213 290.21ZM122.243 296.19C121.81 296.19 121.417 296.09 121.063 295.89C120.71 295.683 120.43 295.39 120.223 295.01C120.017 294.63 119.913 294.176 119.913 293.65C119.913 293.116 120.017 292.66 120.223 292.28C120.437 291.9 120.71 291.606 121.043 291.4C121.377 291.193 121.727 291.09 122.093 291.09C122.713 291.09 123.19 291.296 123.523 291.71C123.863 292.123 124.033 292.676 124.033 293.37C124.033 293.456 124.03 293.543 124.023 293.63C124.023 293.71 124.017 293.78 124.003 293.84H120.723C120.757 294.353 120.917 294.763 121.203 295.07C121.497 295.376 121.877 295.53 122.343 295.53C122.577 295.53 122.79 295.496 122.983 295.43C123.183 295.356 123.373 295.263 123.553 295.15L123.843 295.69C123.637 295.823 123.4 295.94 123.133 296.04C122.873 296.14 122.577 296.19 122.243 296.19ZM120.713 293.25H123.313C123.313 292.756 123.207 292.383 122.993 292.13C122.787 291.87 122.493 291.74 122.113 291.74C121.773 291.74 121.467 291.873 121.193 292.14C120.927 292.4 120.767 292.77 120.713 293.25ZM125.084 297.77L124.884 297.29C125.171 297.163 125.394 296.993 125.554 296.78C125.714 296.573 125.791 296.336 125.784 296.07C125.771 296.076 125.754 296.08 125.734 296.08C125.714 296.08 125.698 296.08 125.684 296.08C125.524 296.08 125.384 296.033 125.264 295.94C125.151 295.84 125.094 295.696 125.094 295.51C125.094 295.33 125.154 295.19 125.274 295.09C125.394 294.983 125.538 294.93 125.704 294.93C125.918 294.93 126.084 295.016 126.204 295.19C126.331 295.363 126.394 295.6 126.394 295.9C126.394 296.326 126.278 296.7 126.044 297.02C125.811 297.346 125.491 297.596 125.084 297.77ZM130.847 296.19C130.44 296.19 130.1 296.07 129.827 295.83C129.56 295.583 129.427 295.243 129.427 294.81C129.427 294.276 129.663 293.87 130.137 293.59C130.617 293.303 131.373 293.103 132.407 292.99C132.407 292.783 132.377 292.586 132.317 292.4C132.263 292.213 132.163 292.063 132.017 291.95C131.877 291.83 131.673 291.77 131.407 291.77C131.127 291.77 130.863 291.823 130.617 291.93C130.37 292.036 130.15 292.156 129.957 292.29L129.637 291.72C129.863 291.573 130.14 291.433 130.467 291.3C130.8 291.16 131.16 291.09 131.547 291.09C132.14 291.09 132.57 291.273 132.837 291.64C133.103 292 133.237 292.483 133.237 293.09V296.07H132.557L132.487 295.49H132.457C132.23 295.676 131.98 295.84 131.707 295.98C131.44 296.12 131.153 296.19 130.847 296.19ZM131.087 295.53C131.32 295.53 131.54 295.473 131.747 295.36C131.953 295.246 132.173 295.086 132.407 294.88V293.53C131.6 293.63 131.033 293.78 130.707 293.98C130.387 294.18 130.227 294.436 130.227 294.75C130.227 295.023 130.31 295.223 130.477 295.35C130.643 295.47 130.847 295.53 131.087 295.53ZM131.717 290.34L130.147 288.81L130.727 288.26L132.137 289.93L131.717 290.34ZM136.036 296.19C135.689 296.19 135.359 296.126 135.046 296C134.732 295.866 134.459 295.706 134.226 295.52L134.636 294.97C134.849 295.136 135.069 295.276 135.296 295.39C135.522 295.496 135.779 295.55 136.066 295.55C136.386 295.55 136.626 295.476 136.786 295.33C136.946 295.176 137.026 294.996 137.026 294.79C137.026 294.623 136.969 294.483 136.856 294.37C136.749 294.256 136.609 294.163 136.436 294.09C136.269 294.01 136.096 293.936 135.916 293.87C135.689 293.783 135.466 293.686 135.246 293.58C135.026 293.466 134.846 293.323 134.706 293.15C134.566 292.97 134.496 292.743 134.496 292.47C134.496 292.076 134.642 291.75 134.936 291.49C135.236 291.223 135.649 291.09 136.176 291.09C136.476 291.09 136.756 291.143 137.016 291.25C137.276 291.356 137.499 291.486 137.686 291.64L137.286 292.16C137.119 292.033 136.946 291.93 136.766 291.85C136.586 291.77 136.389 291.73 136.176 291.73C135.869 291.73 135.642 291.8 135.496 291.94C135.356 292.08 135.286 292.243 135.286 292.43C135.286 292.583 135.336 292.71 135.436 292.81C135.536 292.903 135.666 292.986 135.826 293.06C135.986 293.126 136.156 293.196 136.336 293.27C136.569 293.356 136.799 293.456 137.026 293.57C137.252 293.676 137.439 293.823 137.586 294.01C137.739 294.19 137.816 294.433 137.816 294.74C137.816 295 137.746 295.24 137.606 295.46C137.472 295.68 137.272 295.856 137.006 295.99C136.746 296.123 136.422 296.19 136.036 296.19ZM140.927 296.07V295.39H142.387V290.69H141.227V290.16C141.52 290.106 141.774 290.043 141.987 289.97C142.207 289.89 142.404 289.796 142.577 289.69H143.207V295.39H144.527V296.07H140.927ZM147.448 296.19C146.941 296.19 146.521 296.1 146.188 295.92C145.854 295.74 145.578 295.54 145.358 295.32L145.758 294.78C145.951 294.966 146.174 295.136 146.428 295.29C146.681 295.436 146.994 295.51 147.368 295.51C147.761 295.51 148.091 295.38 148.358 295.12C148.631 294.853 148.768 294.496 148.768 294.05C148.768 293.61 148.644 293.266 148.398 293.02C148.151 292.773 147.821 292.65 147.408 292.65C147.188 292.65 146.998 292.683 146.838 292.75C146.684 292.816 146.511 292.913 146.318 293.04L145.878 292.76L146.088 289.69H149.278V290.4H146.808L146.638 292.29C146.791 292.21 146.944 292.146 147.098 292.1C147.251 292.053 147.424 292.03 147.618 292.03C147.984 292.03 148.314 292.103 148.608 292.25C148.908 292.39 149.148 292.606 149.328 292.9C149.508 293.193 149.598 293.57 149.598 294.03C149.598 294.49 149.494 294.883 149.288 295.21C149.088 295.53 148.824 295.773 148.498 295.94C148.171 296.106 147.821 296.19 147.448 296.19ZM151.328 292.58C151.162 292.58 151.018 292.523 150.898 292.41C150.785 292.29 150.728 292.14 150.728 291.96C150.728 291.766 150.785 291.613 150.898 291.5C151.018 291.38 151.162 291.32 151.328 291.32C151.488 291.32 151.625 291.38 151.738 291.5C151.858 291.613 151.918 291.766 151.918 291.96C151.918 292.14 151.858 292.29 151.738 292.41C151.625 292.523 151.488 292.58 151.328 292.58ZM151.328 296.19C151.162 296.19 151.018 296.133 150.898 296.02C150.785 295.9 150.728 295.75 150.728 295.57C150.728 295.376 150.785 295.223 150.898 295.11C151.018 294.99 151.162 294.93 151.328 294.93C151.488 294.93 151.625 294.99 151.738 295.11C151.858 295.223 151.918 295.376 151.918 295.57C151.918 295.75 151.858 295.9 151.738 296.02C151.625 296.133 151.488 296.19 151.328 296.19ZM154.929 296.19C154.422 296.19 153.999 296.1 153.659 295.92C153.319 295.733 153.042 295.523 152.829 295.29L153.249 294.75C153.442 294.95 153.669 295.126 153.929 295.28C154.189 295.433 154.505 295.51 154.879 295.51C155.265 295.51 155.582 295.403 155.829 295.19C156.075 294.976 156.199 294.693 156.199 294.34C156.199 294.086 156.132 293.866 155.999 293.68C155.872 293.486 155.659 293.336 155.359 293.23C155.065 293.123 154.665 293.07 154.159 293.07V292.44C154.612 292.44 154.969 292.386 155.229 292.28C155.495 292.173 155.685 292.03 155.799 291.85C155.912 291.67 155.969 291.47 155.969 291.25C155.969 290.936 155.869 290.69 155.669 290.51C155.475 290.33 155.209 290.24 154.869 290.24C154.602 290.24 154.355 290.3 154.129 290.42C153.909 290.54 153.702 290.696 153.509 290.89L153.069 290.37C153.315 290.136 153.589 289.946 153.889 289.8C154.189 289.646 154.525 289.57 154.899 289.57C155.452 289.57 155.909 289.713 156.269 290C156.629 290.28 156.809 290.676 156.809 291.19C156.809 291.576 156.702 291.893 156.489 292.14C156.275 292.386 155.995 292.576 155.649 292.71V292.75C156.035 292.836 156.362 293.02 156.629 293.3C156.895 293.573 157.029 293.93 157.029 294.37C157.029 294.743 156.935 295.066 156.749 295.34C156.562 295.613 156.309 295.823 155.989 295.97C155.675 296.116 155.322 296.19 154.929 296.19ZM158.579 293.65H160.579V291.8C160.579 291.626 160.586 291.42 160.599 291.18C160.613 290.94 160.623 290.736 160.629 290.57H160.589C160.509 290.723 160.426 290.873 160.339 291.02C160.253 291.166 160.163 291.316 160.069 291.47L158.579 293.65ZM160.579 296.07V294.31H157.709V293.77L160.439 289.69H161.359V293.65H162.229V294.31H161.359V296.07H160.579Z" fill="black" fill-opacity="0.6"/>
</svg>
