<svg width="24" height="25" viewBox="0 0 24 25" fill="none" xmlns="http://www.w3.org/2000/svg">
<g clip-path="url(#clip0_412_6)">
<path d="M23 11.8794C22.7348 11.8794 22.4804 11.9848 22.2929 12.1723C22.1054 12.3598 22 12.6142 22 12.8794C22.0081 15.2047 21.2084 17.4606 19.7375 19.2615C18.2667 21.0625 16.2159 22.2967 13.9359 22.7532C11.6559 23.2097 9.28806 22.8601 7.2372 21.7643C5.18634 20.6684 3.57975 18.8942 2.69205 16.7451C1.80434 14.5959 1.69062 12.2051 2.37033 9.9814C3.05004 7.75768 4.48098 5.83905 6.41856 4.55347C8.35615 3.26788 10.6801 2.69515 12.9932 2.93317C15.3062 3.17118 17.4648 4.20517 19.1 5.8584C19.0671 5.86737 19.0337 5.87438 19 5.8794H16C15.7348 5.8794 15.4804 5.98475 15.2929 6.17229C15.1054 6.35983 15 6.61418 15 6.8794C15 7.14461 15.1054 7.39897 15.2929 7.5865C15.4804 7.77404 15.7348 7.8794 16 7.8794H19C19.7957 7.8794 20.5587 7.56332 21.1213 7.00072C21.6839 6.43811 22 5.67504 22 4.8794V1.87939C22 1.61418 21.8947 1.35982 21.7071 1.17229C21.5196 0.984751 21.2652 0.879395 21 0.879395C20.7348 0.879395 20.4804 0.984751 20.2929 1.17229C20.1054 1.35982 20 1.61418 20 1.87939V3.9444C17.9526 2.11392 15.3389 1.04156 12.5959 0.906497C9.85279 0.771433 7.14646 1.58185 4.92909 3.20233C2.71172 4.82281 1.11765 7.15518 0.413238 9.8097C-0.291171 12.4642 -0.063243 15.2801 1.05894 17.7867C2.18112 20.2934 4.12957 22.339 6.5787 23.5818C9.02783 24.8245 11.8293 25.1891 14.5149 24.6146C17.2005 24.0402 19.6077 22.5614 21.3341 20.4255C23.0605 18.2895 24.0015 15.6258 24 12.8794C24 12.6142 23.8947 12.3598 23.7071 12.1723C23.5196 11.9848 23.2652 11.8794 23 11.8794Z" fill="#4A72FF"/>
<path d="M12.0002 6.87939C11.7349 6.87939 11.4806 6.98475 11.2931 7.17229C11.1055 7.35982 11.0002 7.61418 11.0002 7.87939V12.8794C11.0002 13.1446 11.1056 13.3989 11.2932 13.5864L14.2932 16.5864C14.4818 16.7686 14.7344 16.8693 14.9966 16.8671C15.2588 16.8648 15.5096 16.7596 15.695 16.5742C15.8804 16.3888 15.9856 16.138 15.9878 15.8758C15.9901 15.6136 15.8893 15.361 15.7072 15.1724L13.0002 12.4654V7.87939C13.0002 7.61418 12.8948 7.35982 12.7073 7.17229C12.5197 6.98475 12.2654 6.87939 12.0002 6.87939Z" fill="#4A72FF"/>
</g>
<defs>
<clipPath id="clip0_412_6">
<rect width="24" height="24" fill="white" transform="translate(0 0.879395)"/>
</clipPath>
</defs>
</svg>
