<?xml version="1.0" encoding="utf-8"?>
<!-- Generator: Adobe Illustrator 25.0.0, SVG Export Plug-In . SVG Version: 6.00 Build 0)  -->
<svg version="1.1" id="Camada_1" xmlns="http://www.w3.org/2000/svg" xmlns:xlink="http://www.w3.org/1999/xlink" x="0px" y="0px"
	 viewBox="0 0 52.4 13.7" style="enable-background:new 0 0 52.4 13.7;" xml:space="preserve">
<style type="text/css">
	.st0{fill:#336299;}
</style>
<g>
	<path class="st0" d="M29.8,4.3c0.1,0,0.1,0,0.2,0c0.8-0.4,1.6-0.5,2.4-0.4C33,4,33.6,4.2,34.1,4.7c0.6,0.5,1,1.2,1.2,1.9
		c0.1,0.4,0.2,0.9,0.2,1.3c0,0.4,0,0.8,0,1.2c-0.1,1.1-0.4,2.2-1.2,3c-0.7,0.8-1.5,1.2-2.5,1.5c-0.3,0.1-0.6,0.1-1,0.1
		c-1,0-1.9,0-2.8-0.2c-0.3-0.1-0.6-0.1-0.9-0.2c-0.2,0-0.2,0-0.2-0.2c0-0.8,0-1.6,0-2.4c0-2.1,0-4.1,0-6.2c0-0.6,0-1.3-0.1-1.9
		c0-0.3-0.1-0.6-0.2-0.8c-0.1-0.2-0.2-0.3-0.5-0.4c-0.1,0-0.3-0.1-0.4-0.1c-0.1,0-0.1-0.1-0.2-0.2c0,0,0-0.1,0-0.1
		c0-0.2,0-0.2,0.2-0.2c0.7-0.1,1.4-0.3,2.2-0.4c0.5-0.1,1-0.2,1.5-0.3c0.2,0,0.3,0,0.3,0.2c0,0.2,0,0.4,0,0.6c0,1.1,0,2.2,0,3.3
		C29.8,4.2,29.8,4.3,29.8,4.3z M29.8,9.3c0,0.8,0,2,0.1,3.2c0,0.1,0,0.2,0,0.3c0,0.1,0.1,0.1,0.1,0.1c0.1,0,0.2,0,0.3,0
		c0.5,0,0.9-0.1,1.2-0.4c0.2-0.2,0.4-0.5,0.6-0.8c0.3-0.7,0.5-1.4,0.6-2.1c0.1-0.5,0-1,0-1.5c0-0.4,0-0.7-0.1-1.1
		c-0.1-0.4-0.2-0.8-0.5-1.2c-0.2-0.3-0.5-0.6-0.9-0.8C31.1,5,31,5,30.9,5c-0.3,0-0.6,0-0.9,0.1c-0.1,0-0.1,0-0.1,0.2
		C29.8,6.5,29.8,7.7,29.8,9.3z"/>
	<path class="st0" d="M5.3,0.2c1.7,0,3.4,0,5.1,0c0,0,0,0,0.1,0c0.2,0,0.2,0,0.2,0.2c0,0.6,0,1.2,0,1.8c0,0.6,0,1.1,0,1.7
		c0,0.2,0,0.2-0.1,0.2c-0.1,0-0.2,0.1-0.3,0.1c-0.2,0-0.2,0-0.3-0.1c0-0.1-0.1-0.2-0.1-0.3C9.7,3.3,9.5,2.9,9.3,2.5
		C9,2,8.6,1.7,8.1,1.5C7.9,1.4,7.7,1.3,7.4,1.3c-0.8-0.1-1.6,0-2.3,0C5,1.3,5,1.3,5,1.4c0,0.4,0,0.8-0.1,1.2c0,1.2-0.1,2.4,0,3.6
		c0,0.2,0,0.2,0.2,0.2c0.4,0,0.9,0,1.3-0.1c0.4,0,0.7-0.2,0.9-0.5c0.2-0.2,0.3-0.5,0.4-0.8c0-0.1,0.1-0.3,0.1-0.4
		c0-0.1,0.1-0.1,0.1-0.1c0.1,0,0.3,0,0.4,0c0.1,0,0.1,0,0.1,0.1c0,0,0,0.1,0,0.1c0,1.4,0,2.7,0,4.1c0,0.2,0,0.2-0.2,0.2
		c-0.1,0-0.2,0-0.3,0c-0.1,0-0.1,0-0.1-0.1c0-0.1-0.1-0.3-0.1-0.4C7.5,8.4,7.4,8.1,7.2,7.9C7,7.6,6.8,7.4,6.4,7.4
		c-0.5,0-1-0.1-1.4-0.1c-0.1,0-0.1,0-0.1,0.1c0,0.6,0,1.2,0,1.8c0,0.5,0,1.1,0.1,1.6c0,0.3,0.1,0.7,0.2,1c0,0.2,0.1,0.3,0.2,0.5
		c0.1,0.2,0.3,0.4,0.6,0.4c0.3,0.1,0.5,0.1,0.8,0.1c0.2,0,0.2,0.1,0.2,0.2c0,0.1,0,0.2,0,0.3c0,0.1,0,0.1-0.1,0.1c0,0-0.1,0-0.1,0
		c-2.1,0-4.2,0-6.2,0c0,0-0.1,0-0.1,0c-0.3,0-0.3,0-0.3-0.3c0-0.3,0-0.3,0.3-0.4c0.2,0,0.3-0.1,0.5-0.1c0.4-0.1,0.7-0.3,0.8-0.7
		c0.1-0.2,0.2-0.5,0.2-0.8c0.1-0.7,0.1-1.4,0.1-2.1c0-1.6,0-3.2,0-4.9c0-0.6,0-1.2-0.1-1.7c0-0.3-0.1-0.6-0.2-0.8
		C1.4,1.3,1.1,1.1,0.7,1c-0.2,0-0.4-0.1-0.6-0.1C0,0.9,0,0.8,0,0.8c0-0.1,0-0.3,0-0.4c0-0.1,0-0.1,0.1-0.1c0.1,0,0.2,0,0.2,0
		C2,0.2,3.7,0.2,5.3,0.2C5.3,0.2,5.3,0.2,5.3,0.2z"/>
	<path class="st0" d="M18.6,8.9c0,0.4-0.1,1.1-0.3,1.8c-0.6,1.6-1.8,2.6-3.5,2.9c-0.2,0-0.4,0-0.5,0c-0.4,0-0.7,0-1.1,0
		c-1.6-0.2-2.7-1-3.4-2.4C9.5,10.7,9.4,10,9.3,9.4C9.3,8.6,9.3,7.8,9.6,7c0.4-1.3,1.2-2.3,2.4-2.9c0.8-0.4,1.6-0.5,2.5-0.4
		c0.5,0,1,0.1,1.5,0.3c1.1,0.4,1.8,1.2,2.2,2.3C18.5,7.1,18.6,7.9,18.6,8.9z M15.7,8.9c0-0.7,0-1.4-0.1-2c-0.1-0.5-0.2-0.9-0.4-1.3
		C15,5.2,14.8,5,14.6,4.7c-0.1-0.1-0.3-0.2-0.4-0.2c-0.5-0.1-0.8,0-1.1,0.4c-0.2,0.2-0.3,0.5-0.4,0.7c-0.2,0.5-0.3,1.1-0.3,1.6
		c-0.1,0.7,0,1.4,0,2.1c0,0.5,0.1,1.1,0.2,1.6c0.1,0.4,0.2,0.9,0.5,1.2c0.1,0.2,0.3,0.4,0.5,0.6c0.4,0.3,0.9,0.3,1.3,0
		c0.2-0.2,0.4-0.4,0.5-0.7c0.2-0.4,0.3-0.7,0.3-1.1C15.7,10.3,15.7,9.6,15.7,8.9z"/>
	<path class="st0" d="M40.8,13.7c-0.8,0-1.7-0.2-2.4-0.7c-1-0.6-1.6-1.5-1.9-2.5c-0.1-0.4-0.2-0.9-0.2-1.4c0-0.9,0.1-1.8,0.4-2.7
		c0.7-1.5,1.8-2.4,3.5-2.7c0.6-0.1,1.1-0.1,1.7,0.1c1,0.2,1.7,0.8,2.2,1.6c0.3,0.5,0.5,1.1,0.6,1.7c0.1,0.3,0.1,0.6,0.1,0.9
		c0,0.3,0,0.3-0.2,0.3c-1.7,0-3.4,0-5.1,0c0,0-0.1,0-0.1,0c-0.1,0-0.1,0-0.1,0.1c0,0.8,0.1,1.6,0.5,2.3c0.4,0.7,0.9,1.2,1.7,1.4
		c0.9,0.2,1.8,0.2,2.7-0.4c0.1,0,0.1-0.1,0.2-0.1c0,0,0.1,0,0.1,0c0.1,0,0.3,0.3,0.2,0.4c-0.1,0.1-0.2,0.2-0.3,0.3
		c-0.6,0.6-1.2,1-2,1.2C41.8,13.7,41.5,13.7,40.8,13.7z M40.5,7.5C40.5,7.5,40.5,7.5,40.5,7.5c0.4,0,0.8,0,1.2,0
		c0.1,0,0.1,0,0.1-0.2c0-0.4,0-0.7-0.1-1.1c0-0.4-0.1-0.7-0.2-1c-0.1-0.2-0.2-0.3-0.3-0.5c-0.2-0.3-0.6-0.3-0.9-0.2
		c-0.2,0.1-0.3,0.2-0.4,0.4c-0.2,0.2-0.3,0.4-0.4,0.7c-0.2,0.5-0.3,1.1-0.4,1.6c0,0.1,0,0.2,0,0.3c0,0.1,0,0.1,0.1,0.1
		c0,0,0.1,0,0.1,0C39.7,7.5,40.1,7.5,40.5,7.5z"/>
	<path class="st0" d="M45.2,11.7c0-0.4,0-0.8,0-1.2c0-0.1,0-0.2,0.1-0.2c0,0,0,0,0.1,0c0.3-0.1,0.3-0.1,0.4,0.2
		c0.2,0.4,0.4,0.9,0.6,1.2c0.2,0.2,0.4,0.5,0.6,0.6c0.5,0.4,1.1,0.5,1.7,0.4c0.6-0.1,1-0.6,1-1.2c0-0.5-0.2-0.9-0.6-1.2
		C48.8,10,48.4,9.9,48,9.7c-0.4-0.1-0.7-0.3-1.1-0.4c-0.3-0.1-0.5-0.3-0.8-0.5c-0.5-0.5-0.8-1.1-0.8-1.8c-0.1-1.3,0.7-2.4,1.9-2.9
		c0.5-0.2,1-0.3,1.6-0.3c0.8,0,1.7,0.1,2.5,0.3c0.1,0,0.2,0.1,0.4,0.1c0.1,0,0.1,0.1,0.2,0.2c0,0.6,0,1.2,0,1.8c0,0.2,0,0.3,0,0.5
		c0,0.1,0,0.1-0.1,0.2c-0.1,0-0.1,0.1-0.2,0.1c-0.1,0-0.2,0-0.2-0.1c0-0.1-0.1-0.2-0.1-0.2c-0.1-0.3-0.3-0.6-0.4-0.9
		c-0.1-0.2-0.3-0.5-0.5-0.6c-0.3-0.3-0.7-0.4-1.1-0.4C48.5,4.5,48,5,47.9,5.7c0,0.1,0,0.1,0,0.2c0,0.3,0.1,0.5,0.3,0.8
		c0.2,0.2,0.4,0.3,0.6,0.4c0.3,0.2,0.7,0.4,1,0.5c0.4,0.2,0.8,0.3,1.1,0.5c0.3,0.2,0.6,0.3,0.8,0.6c0.4,0.4,0.6,0.9,0.6,1.5
		c0,0.2,0,0.5,0,0.7c-0.1,0.8-0.5,1.4-1.1,1.9c-0.5,0.4-1,0.6-1.6,0.7c-0.2,0-0.4,0.1-0.5,0.1c-0.3,0-0.5,0-0.8,0
		c-0.7,0-1.4-0.1-2.1-0.2c-0.3-0.1-0.6-0.1-0.8-0.2c-0.1,0-0.2-0.1-0.2-0.2C45.3,12.6,45.3,12.1,45.2,11.7
		C45.3,11.7,45.3,11.7,45.2,11.7z"/>
	<path class="st0" d="M22.7,5.7c0.1-0.1,0.1-0.2,0.1-0.2c0.2-0.3,0.4-0.7,0.7-0.9c0.4-0.4,0.8-0.6,1.4-0.7c0.4-0.1,0.7,0,1.1,0
		c0.1,0,0.1,0,0.2,0.1C26.4,4,26.4,4,26.3,4.2c-0.3,0.7-0.5,1.4-0.8,2.2c-0.1,0.2-0.1,0.2-0.3,0.1c-0.2-0.1-0.3-0.1-0.5-0.2
		c-0.5-0.2-1-0.2-1.6-0.1c-0.1,0.1-0.3,0.1-0.4,0.2c-0.1,0.1-0.1,0.1-0.1,0.2c0,0.1,0,0.2,0,0.3c0,1.4,0,2.7,0,4.1
		c0,0.3,0,0.6,0.1,0.9c0,0.1,0.1,0.3,0.1,0.4c0.1,0.2,0.3,0.3,0.5,0.4c0.2,0,0.5,0.1,0.7,0.1c0.2,0,0.2,0,0.2,0.2c0,0.1,0,0.2,0,0.3
		c0,0.1,0,0.1-0.2,0.2c-0.1,0-0.2,0-0.4,0c-1.6,0-3.1,0-4.7,0c-0.1,0-0.2,0-0.3,0c-0.1,0-0.1,0-0.1-0.1c0-0.1,0-0.3,0-0.4
		c0-0.1,0-0.1,0.1-0.1c0.1,0,0.2-0.1,0.4-0.1c0.4-0.1,0.6-0.3,0.7-0.7c0-0.2,0.1-0.4,0.1-0.6c0-0.9,0.1-1.8,0.1-2.7c0-0.7,0-1.3,0-2
		c0-0.3,0-0.6-0.1-0.9c0-0.1,0-0.2-0.1-0.3c-0.1-0.2-0.3-0.4-0.5-0.4c-0.2,0-0.3-0.1-0.5-0.1c-0.1,0-0.1-0.1-0.1-0.2c0,0,0,0,0,0
		c0-0.3,0-0.3,0.3-0.4c1.2-0.3,2.4-0.5,3.6-0.7c0.2,0,0.2,0,0.2,0.2c0,0.5,0,1-0.1,1.5C22.7,5.5,22.6,5.6,22.7,5.7z"/>
</g>
</svg>
