<?xml version="1.0" encoding="utf-8"?>
<!-- Generator: Adobe Illustrator 25.0.0, SVG Export Plug-In . SVG Version: 6.00 Build 0)  -->
<svg version="1.1" id="Camada_1" xmlns="http://www.w3.org/2000/svg" xmlns:xlink="http://www.w3.org/1999/xlink" x="0px" y="0px"
	 viewBox="0 0 41.6 13.7" style="enable-background:new 0 0 41.6 13.7;" xml:space="preserve">
<style type="text/css">
	.st0{fill:#4284F3;}
	.st1{fill:#FABB05;}
	.st2{fill:#E94335;}
	.st3{fill:#34A753;}
</style>
<g>
	<path class="st0" d="M7.8,4.9c0.8,0,1.6,0,2.4,0c0.1,0,0.1,0,0.1,0.1c0.1,0.4,0.1,0.9,0,1.3C10.3,6.8,10.1,7.4,9.9,8
		c-0.5,1-1.3,1.8-2.3,2.2c-0.8,0.4-1.6,0.5-2.4,0.4C4,10.6,3,10.2,2.1,9.5c-1.1-0.9-1.8-2-2-3.4c-0.3-1.8,0.3-3.3,1.5-4.6
		c0.8-0.8,1.8-1.3,3-1.5C6-0.1,7.3,0.1,8.5,1C8.7,1.1,8.8,1.3,9,1.4c0,0,0,0,0,0.1C8.7,1.8,8.4,2.1,8,2.4c0,0-0.1,0-0.1,0
		C7.5,2,6.9,1.7,6.3,1.5c-2-0.5-4,0.7-4.5,2.7c-0.4,1.5,0,2.8,1.1,3.9c0.6,0.6,1.3,0.9,2.1,1c0.7,0.1,1.5,0,2.1-0.3
		c0.6-0.3,1.1-0.7,1.4-1.2c0.2-0.4,0.3-0.8,0.4-1.2c0,0,0-0.1,0-0.1c0,0,0,0-0.1,0c-1.1,0-2.2,0-3.3,0c-0.1,0-0.1,0-0.1-0.1
		c0-0.4,0-0.9,0-1.3c0-0.1,0-0.1,0.1-0.1C6.3,4.9,7,4.9,7.8,4.9z"/>
	<path class="st0" d="M32.2,4c-0.4,0-0.9,0-1.3,0c0,0-0.1,0-0.1,0.1c0,0.1,0,0.3,0,0.4c0,0,0,0.1,0,0.1s-0.1,0-0.1,0
		c-0.1-0.1-0.3-0.2-0.4-0.3c-0.7-0.4-1.4-0.5-2.2-0.3c-1.4,0.4-2.4,1.7-2.5,3.1c0,0.7,0.1,1.5,0.6,2.1c0.7,1.1,1.8,1.6,3.1,1.5
		c0.5-0.1,1-0.3,1.4-0.7c0,0,0,0,0,0c0,0,0.1,0,0.1,0c0,0.4,0,0.7-0.1,1.1c-0.1,0.4-0.3,0.7-0.6,1c-0.5,0.4-1.1,0.5-1.7,0.3
		c-0.6-0.2-0.9-0.6-1.2-1.1c0-0.1,0-0.1-0.1,0c-0.4,0.2-0.8,0.3-1.2,0.5c0,0-0.1,0,0,0.1c0.4,0.8,0.9,1.3,1.7,1.7
		c0.7,0.3,1.5,0.3,2.2,0.2c0.8-0.2,1.5-0.7,1.9-1.4c0.3-0.6,0.4-1.2,0.4-1.9c0-1,0-2,0-3.1L32.2,4C32.3,4,32.3,4,32.2,4z M30.4,8.7
		c-0.7,0.7-1.8,0.8-2.6,0c-0.5-0.5-0.7-1.1-0.6-1.8c0-0.5,0.2-0.9,0.6-1.3c0.9-1,2.5-0.7,3,0.6c0.1,0.3,0.2,0.6,0.2,1
		C31,7.8,30.8,8.3,30.4,8.7z"/>
	<path class="st1" d="M21.8,3.8c-1.9,0-3.4,1.5-3.4,3.4c0,1.9,1.5,3.4,3.4,3.4c1.9,0,3.4-1.5,3.4-3.4C25.2,5.3,23.7,3.8,21.8,3.8z
		 M22.8,8.9c-0.9,0.7-2.2,0.3-2.8-0.7c-0.4-0.8-0.3-1.8,0.3-2.4c0.9-1.1,2.6-0.8,3.2,0.5c0.1,0.3,0.2,0.6,0.2,1.1
		C23.7,7.9,23.4,8.5,22.8,8.9z"/>
	<path class="st2" d="M14.4,3.8c-1.9,0-3.4,1.5-3.4,3.4c0,1.9,1.5,3.4,3.4,3.4c1.9,0,3.4-1.5,3.4-3.4C17.8,5.3,16.3,3.8,14.4,3.8z
		 M15.8,8.6c-0.4,0.5-0.9,0.7-1.4,0.7c-0.9,0-1.7-0.6-1.9-1.5c-0.2-0.7-0.1-1.3,0.3-1.9c0.4-0.6,1-0.9,1.8-0.8
		c0.8,0.1,1.3,0.5,1.6,1.2C16.4,7.2,16.3,7.9,15.8,8.6z"/>
	<path class="st2" d="M41.2,5.5c-0.6-1.1-1.7-1.9-3.1-1.7c-1,0.1-1.7,0.6-2.3,1.4c-0.3,0.5-0.5,1.1-0.5,1.7c0,0.6,0.1,1.2,0.3,1.8
		c0.6,1.3,1.7,1.9,3.1,1.9c0.1,0,0.1,0,0.2,0c1.1-0.1,1.9-0.6,2.6-1.4c0,0,0-0.1,0-0.1c-0.3-0.2-0.7-0.5-1-0.7c-0.1,0-0.1,0-0.1,0
		c-0.4,0.5-0.9,0.8-1.5,0.9c-0.8,0-1.3-0.3-1.7-1c0,0,0-0.1,0-0.1c1.1-0.5,2.2-0.9,3.4-1.4c0.4-0.1,0.7-0.3,1.1-0.4c0,0,0.1,0,0-0.1
		C41.5,6,41.4,5.8,41.2,5.5z M39.8,5.9c-0.5,0.2-1,0.4-1.4,0.6c-0.5,0.2-1,0.4-1.5,0.6c-0.1,0-0.1,0-0.1-0.1c0-0.9,0.6-1.7,1.5-1.9
		c0.1,0,0.2,0,0.3,0c0.4,0,0.8,0.1,1.1,0.5c0,0.1,0.1,0.1,0.1,0.2C39.8,5.8,39.8,5.8,39.8,5.9z"/>
	<path class="st3" d="M34.7,5.4c0,1.6,0,3.3,0,4.9c0,0.1,0,0.1-0.1,0.1c-0.4,0-0.9,0-1.3,0c-0.1,0-0.1,0-0.1-0.1c0-3.3,0-6.6,0-9.9
		c0-0.1,0-0.1,0.1-0.1c0.4,0,0.8,0,1.3,0c0.1,0,0.1,0,0.1,0.1C34.7,2.1,34.7,3.8,34.7,5.4z"/>
</g>
</svg>
