<svg width="35" height="35" viewBox="0 0 35 35" fill="none" xmlns="http://www.w3.org/2000/svg">
<g clip-path="url(#clip0_418_15)">
<path d="M28.7 35H6.3C2.8 35 0 32.2 0 28.7V6.3C0 2.8 2.8 0 6.3 0H28.6C32.2 0 35 2.8 35 6.3V28.6C35 32.2 32.2 35 28.7 35Z" fill="#4A72FF"/>
<path d="M21.3 30.2H19.2V20.9C19.2 17 22.3 13.9 26.2 13.9H28.3V23.2C28.3 27 25.1 30.2 21.3 30.2Z" fill="#F4F7FF"/>
<path d="M16.9 25.4V11.8C16.9 7.89999 13.8 4.79999 9.90001 4.79999H6.70001V18.4C6.70001 22.3 9.80001 25.4 13.7 25.4H16.9Z" fill="#F4F7FF"/>
<path d="M25.9628 9.96579C26.3973 8.13891 25.2686 6.30569 23.4417 5.87118C21.6148 5.43666 19.7816 6.56539 19.3471 8.39227C18.9125 10.2192 20.0413 12.0524 21.8682 12.4869C23.695 12.9214 25.5283 11.7927 25.9628 9.96579Z" fill="#F4F7FF"/>
</g>
<defs>
<clipPath id="clip0_418_15">
<rect width="35" height="35" fill="white"/>
</clipPath>
</defs>
</svg>
