<?xml version="1.0" encoding="utf-8"?>
<!-- Generator: Adobe Illustrator 25.0.0, SVG Export Plug-In . SVG Version: 6.00 Build 0)  -->
<svg version="1.1" xmlns="http://www.w3.org/2000/svg" xmlns:xlink="http://www.w3.org/1999/xlink" x="0px" y="0px"
	 viewBox="0 0 35 35" style="enable-background:new 0 0 35 35;" xml:space="preserve">
<style type="text/css">
	.st0{fill:#4A72FF;}
	.st1{fill:#F4F7FF;}
</style>
<g id="Background">
</g>
<g id="Graphic_Elements">
	<g>
		<path class="st0" d="M28.7,35H6.3C2.8,35,0,32.2,0,28.7V6.3C0,2.8,2.8,0,6.3,0h22.3C32.2,0,35,2.8,35,6.3v22.3
			C35,32.2,32.2,35,28.7,35z"/>
		<g>
			<path class="st1" d="M21.3,30.2h-2.1v-9.3c0-3.9,3.1-7,7-7h2.1v9.3C28.3,27,25.1,30.2,21.3,30.2z"/>
			<path class="st1" d="M16.9,25.4V11.8c0-3.9-3.1-7-7-7H6.7l0,13.6c0,3.9,3.1,7,7,7H16.9z"/>
			<ellipse transform="matrix(0.2314 -0.9729 0.9729 0.2314 8.4746 29.0377)" class="st1" cx="22.6" cy="9.2" rx="3.4" ry="3.4"/>
		</g>
	</g>
</g>
</svg>
