<svg width="24" height="25" viewBox="0 0 24 25" fill="none" xmlns="http://www.w3.org/2000/svg">
<g clip-path="url(#clip0_412_2)">
<path d="M22.8532 1.22742C22.1733 0.548618 21.2519 0.167358 20.2912 0.167358C19.3304 0.167358 18.409 0.548618 17.7292 1.22742L1.46515 17.4914C0.999404 17.9546 0.630115 18.5054 0.37865 19.1122C0.127186 19.719 -0.00146065 20.3696 0.00015231 21.0264V23.0794C0.00015231 23.3446 0.105509 23.599 0.293046 23.7865C0.480582 23.9741 0.734936 24.0794 1.00015 24.0794H3.05315C3.70991 24.0813 4.36052 23.9528 4.96731 23.7015C5.57409 23.4502 6.12501 23.0811 6.58815 22.6154L22.8532 6.35042C23.5317 5.67062 23.9127 4.74939 23.9127 3.78892C23.9127 2.82846 23.5317 1.90723 22.8532 1.22742ZM5.17415 21.2014C4.61016 21.7617 3.84812 22.0771 3.05315 22.0794H2.00015V21.0264C1.99914 20.6323 2.07631 20.2419 2.22719 19.8779C2.37807 19.5138 2.59967 19.1833 2.87915 18.9054L15.2222 6.56242L17.5222 8.86242L5.17415 21.2014ZM21.4382 4.93642L18.9322 7.44342L16.6322 5.14842L19.1392 2.64142C19.2902 2.49073 19.4694 2.37126 19.6666 2.28983C19.8638 2.2084 20.0751 2.16661 20.2884 2.16684C20.5018 2.16708 20.713 2.20933 20.91 2.29118C21.107 2.37304 21.286 2.4929 21.4367 2.64392C21.5873 2.79494 21.7068 2.97416 21.7882 3.17136C21.8697 3.36855 21.9115 3.57985 21.9112 3.79319C21.911 4.00653 21.8687 4.21774 21.7869 4.41475C21.705 4.61177 21.5852 4.79073 21.4342 4.94142L21.4382 4.93642Z" fill="#4A72FF"/>
</g>
<defs>
<clipPath id="clip0_412_2">
<rect width="24" height="24" fill="white" transform="translate(0 0.0794678)"/>
</clipPath>
</defs>
</svg>
