<svg width="24" height="25" viewBox="0 0 24 25" fill="none" xmlns="http://www.w3.org/2000/svg">
<g clip-path="url(#clip0_412_12)">
<path d="M3.99988 6.67962C3.60563 6.68066 3.21509 6.6035 2.85085 6.45262C2.48662 6.30174 2.15592 6.08014 1.87788 5.80062L0.33388 4.42662C0.135763 4.24999 0.0159282 4.00189 0.000737736 3.7369C-0.0144527 3.47191 0.0762454 3.21174 0.25288 3.01362C0.429514 2.8155 0.677615 2.69567 0.942604 2.68048C1.20759 2.66529 1.46776 2.75599 1.66588 2.93262L3.25088 4.34662C3.34162 4.44852 3.45224 4.53077 3.57596 4.58831C3.69967 4.64585 3.83385 4.67747 3.97024 4.68122C4.10663 4.68496 4.24234 4.66076 4.36902 4.6101C4.49571 4.55943 4.61069 4.48338 4.70688 4.38662L8.31088 0.95562C8.50467 0.78309 8.75794 0.692639 9.01718 0.703371C9.27643 0.714103 9.52135 0.825178 9.70022 1.01314C9.87909 1.20109 9.9779 1.45121 9.97579 1.71067C9.97367 1.97013 9.87079 2.21861 9.68888 2.40362L6.09988 5.81762C5.82365 6.09224 5.496 6.30972 5.13567 6.45763C4.77534 6.60554 4.38939 6.68097 3.99988 6.67962ZM23.9999 4.67962C23.9999 4.4144 23.8945 4.16005 23.707 3.97251C23.5195 3.78498 23.2651 3.67962 22.9999 3.67962H12.9999C12.7347 3.67962 12.4803 3.78498 12.2928 3.97251C12.1052 4.16005 11.9999 4.4144 11.9999 4.67962C11.9999 4.94484 12.1052 5.19919 12.2928 5.38673C12.4803 5.57426 12.7347 5.67962 12.9999 5.67962H22.9999C23.2651 5.67962 23.5195 5.57426 23.707 5.38673C23.8945 5.19919 23.9999 4.94484 23.9999 4.67962ZM6.09988 13.8176L9.68888 10.4036C9.78905 10.3144 9.87026 10.206 9.92767 10.0848C9.98509 9.96361 10.0175 9.83209 10.0231 9.69809C10.0286 9.56409 10.0072 9.43034 9.95997 9.3048C9.91277 9.17926 9.8408 9.0645 9.74834 8.96735C9.65588 8.87019 9.54482 8.79263 9.42178 8.73927C9.29873 8.68591 9.16621 8.65785 9.03209 8.65676C8.89798 8.65567 8.76502 8.68156 8.64112 8.7329C8.51722 8.78425 8.40491 8.85999 8.31088 8.95562L4.71088 12.3866C4.52051 12.5687 4.26727 12.6702 4.00388 12.6702C3.74049 12.6702 3.48725 12.5687 3.29688 12.3866L1.70688 10.8016C1.51828 10.6195 1.26568 10.5187 1.00348 10.5209C0.741282 10.5232 0.490469 10.6284 0.305061 10.8138C0.119653 10.9992 0.014484 11.25 0.0122056 11.5122C0.00992716 11.7744 0.110722 12.027 0.29288 12.2156L1.87788 13.8006C2.43755 14.3604 3.1958 14.6763 3.98738 14.6795C4.77896 14.6827 5.53972 14.3729 6.10388 13.8176H6.09988ZM23.9999 12.6796C23.9999 12.4144 23.8945 12.1601 23.707 11.9725C23.5195 11.785 23.2651 11.6796 22.9999 11.6796H12.9999C12.7347 11.6796 12.4803 11.785 12.2928 11.9725C12.1052 12.1601 11.9999 12.4144 11.9999 12.6796C11.9999 12.9448 12.1052 13.1992 12.2928 13.3867C12.4803 13.5743 12.7347 13.6796 12.9999 13.6796H22.9999C23.2651 13.6796 23.5195 13.5743 23.707 13.3867C23.8945 13.1992 23.9999 12.9448 23.9999 12.6796ZM6.09988 21.8176L9.68488 18.4036C9.78505 18.3144 9.86626 18.206 9.92367 18.0848C9.98109 17.9636 10.0135 17.8321 10.0191 17.6981C10.0246 17.5641 10.0032 17.4303 9.95597 17.3048C9.90877 17.1793 9.8368 17.0645 9.74434 16.9673C9.65188 16.8702 9.54082 16.7926 9.41778 16.7393C9.29473 16.6859 9.16221 16.6579 9.02809 16.6568C8.89398 16.6557 8.76102 16.6816 8.63712 16.7329C8.51322 16.7842 8.40091 16.86 8.30688 16.9556L4.70688 20.3866C4.61069 20.4834 4.49571 20.5594 4.36902 20.6101C4.24234 20.6608 4.10663 20.685 3.97024 20.6812C3.83385 20.6775 3.69967 20.6459 3.57596 20.5883C3.45224 20.5308 3.34162 20.4485 3.25088 20.3466L1.66588 18.9326C1.46776 18.756 1.20759 18.6653 0.942604 18.6805C0.677615 18.6957 0.429514 18.8155 0.25288 19.0136C0.0762454 19.2117 -0.0144527 19.4719 0.000737736 19.7369C0.0159282 20.0019 0.135763 20.25 0.33388 20.4266L1.87788 21.8006C2.43755 22.3604 3.1958 22.6763 3.98738 22.6795C4.77896 22.6827 5.53972 22.3729 6.10388 21.8176H6.09988ZM23.9999 20.6796C23.9999 20.4144 23.8945 20.1601 23.707 19.9725C23.5195 19.785 23.2651 19.6796 22.9999 19.6796H12.9999C12.7347 19.6796 12.4803 19.785 12.2928 19.9725C12.1052 20.1601 11.9999 20.4144 11.9999 20.6796C11.9999 20.9448 12.1052 21.1992 12.2928 21.3867C12.4803 21.5743 12.7347 21.6796 12.9999 21.6796H22.9999C23.2651 21.6796 23.5195 21.5743 23.707 21.3867C23.8945 21.1992 23.9999 20.9448 23.9999 20.6796Z" fill="#4A72FF"/>
</g>
<defs>
<clipPath id="clip0_412_12">
<rect width="24" height="24" fill="white" transform="translate(0 0.679443)"/>
</clipPath>
</defs>
</svg>
