<?xml version="1.0" encoding="utf-8"?>
<!-- Generator: Adobe Illustrator 25.0.0, SVG Export Plug-In . SVG Version: 6.00 Build 0)  -->
<svg version="1.1" id="Camada_1" xmlns="http://www.w3.org/2000/svg" xmlns:xlink="http://www.w3.org/1999/xlink" x="0px" y="0px"
	 viewBox="0 0 41.6 5.9" style="enable-background:new 0 0 41.6 5.9;" xml:space="preserve">
<style type="text/css">
	.st0{fill:#040404;}
</style>
<g>
	<path class="st0" d="M18.4,3c-0.1,0-0.2-0.1-0.3-0.2c-0.2-0.3,0-0.6,0.3-0.8c0.1,0,0.1,0,0.2,0c0,0,0.1,0,0.1-0.1
		c0-0.3,0-0.6,0-0.9c0-0.1,0-0.1,0-0.2c0-0.1-0.1-0.1-0.2-0.1c-0.1,0-0.2,0-0.2,0.1c0,0,0,0.1-0.1,0.1c0,0,0-0.1,0-0.1
		c0.1-0.3,0.4-0.7,0.9-0.5c0.2,0.1,0.3,0.3,0.4,0.5c0,0,0,0.1,0,0.1c0,1,0,2,0,3c0,0,0,0,0,0.1c0,0.1,0,0.1,0.1,0.1
		c0.1,0,0.2,0,0.3,0.1c0-0.4,0-0.9,0-1.3c0-0.4,0-0.9,0-1.3c0-0.4,0-0.9,0-1.3c0,0.1,0,0.2,0,0.3c0,0.1,0,0.2,0,0.2c0,0,0.1,0,0.1,0
		c0.2-0.1,0.4-0.3,0.6-0.4c0.1-0.1,0.1-0.1,0.1,0c0.1,0.1,0.3,0.2,0.4,0.4c0,0,0.1,0,0.1,0c0.1-0.1,0.1-0.1,0.2-0.1c0,0,0,0,0,0
		c0,0,0,0,0,0c-0.1,0.1-0.1,0.1-0.2,0.2c0,0-0.1,0.1-0.1,0.1c0,0.1,0,0.2,0,0.3c0,0.9,0,1.7,0,2.6c0,0.1,0,0.2,0,0.3
		c0,0.2-0.2,0.4-0.5,0.4c-0.2,0-0.4,0-0.6-0.1c-0.2-0.1-0.5-0.1-0.7-0.2c-0.2,0-0.4,0-0.6,0c-0.1,0-0.1,0-0.2,0.1
		c-0.1,0.1-0.1,0.2-0.1,0.3c0,0.1,0.1,0.2,0.3,0.2c0.2,0,0.4,0,0.6-0.1c0.3-0.1,0.6-0.1,0.9-0.2c0.2,0,0.4,0,0.5,0.1
		c0.3,0.2,0.4,0.5,0.2,0.8c-0.1,0.2-0.3,0.3-0.5,0.3c0,0,0,0,0,0c0,0,0.1,0,0.1-0.1c0,0,0.1-0.1,0.1-0.2c0-0.2-0.1-0.3-0.2-0.3
		c-0.2,0-0.4,0-0.5,0.1c-0.2,0-0.4,0.1-0.7,0.1c-0.1,0-0.3,0-0.4,0c-0.4,0-0.5-0.3-0.6-0.5c-0.1-0.3,0-0.6,0.3-0.7
		c0.1-0.1,0.2-0.1,0.2-0.3c0-0.4,0-0.9,0-1.3c0-0.1,0-0.1-0.1-0.1c0,0-0.1,0-0.1,0C18.3,2.7,18.3,2.9,18.4,3C18.4,3,18.4,3,18.4,3z
		 M19.9,3.5c0,0.2,0,0.5,0,0.7c0,0.1,0,0.1,0.1,0.1c0.2,0,0.3-0.1,0.4-0.2c0-0.1,0-0.1,0-0.2c0-0.4,0-0.7,0-1.1c0-0.1,0-0.2-0.2-0.2
		c-0.1,0-0.2,0-0.3,0c-0.1,0-0.1,0.1-0.1,0.2C19.9,3,19.9,3.3,19.9,3.5z M19.9,1.5c0,0.2,0,0.3,0,0.5c0,0,0,0.1,0,0.1
		c0.1,0.1,0.3,0.1,0.4,0c0,0,0,0,0-0.1c0-0.3,0-0.6,0-0.9c0,0,0-0.1,0-0.1c-0.1-0.1-0.2-0.2-0.3-0.2c0,0,0,0,0,0
		c0,0-0.1,0.1-0.1,0.1c0,0,0,0.1,0,0.1C19.9,1.2,19.9,1.4,19.9,1.5z M19.9,2.2c0,0.1,0,0.3,0,0.4c0.2-0.1,0.3-0.1,0.5,0
		c0-0.1,0-0.3,0-0.4c0,0,0,0,0-0.1C20.1,2.3,20.1,2.3,19.9,2.2z"/>
	<path class="st0" d="M29.6,1.4c-0.2-0.1-0.3-0.2-0.3-0.4c0-0.3,0.1-0.5,0.4-0.7c0.2-0.1,0.5-0.1,0.7-0.1c0.3,0.1,0.6,0.2,0.9,0.3
		c0.1,0,0.2,0.1,0.3,0.1c0.1,0,0.2,0,0.3,0c0.2-0.1,0.2-0.2,0.1-0.4c0,0-0.1-0.1-0.1-0.1c-0.1,0-0.1,0-0.2,0c0,0,0.1,0,0.1,0
		c0.1,0,0.3,0.1,0.4,0.1c0.2,0.1,0.2,0.2,0.2,0.4c0,0.4-0.2,0.7-0.6,0.7c0,0-0.1,0-0.1,0c0,0.2,0,0.4,0,0.6c0,0.1,0,0.2,0.2,0.3
		c0.1,0,0.1,0.1,0.2,0.2c-0.1,0.1-0.2,0.2-0.3,0.3c0,0-0.1,0.1-0.1,0.1c0,0.3,0,0.6,0,0.9c0,0,0,0,0,0c0.2-0.1,0.4-0.3,0.6-0.7
		c0,0.1,0,0.2,0,0.3C32.1,3.6,32,4,31.6,4.2c-0.8,0.6-1.8,0.2-2.2-0.4C29,3.1,29,2.1,29.9,1.4c0.1-0.1,0.3-0.2,0.5-0.3
		c0,0,0.1,0,0.1,0c-0.3,0.2-0.5,0.4-0.6,0.7c0.4-0.2,0.7-0.3,1.1-0.5c0,0,0,0.1,0,0.1c0,0.5,0,1,0,1.5C31,2.9,31,3,31,3
		c-0.3,0.1-0.6,0.3-0.8,0.4c0,0,0,0,0,0c0.4,0.4,0.9,0.5,1.3,0.3c0.1,0,0.1-0.1,0.1-0.1c0-0.3,0-0.6,0-0.9c0-0.1,0-0.1-0.1-0.2
		c-0.1-0.1-0.2-0.2-0.3-0.2c0.1-0.1,0.2-0.2,0.3-0.2c0.1,0,0.1-0.1,0.1-0.1c0-0.2,0-0.4,0-0.6c0-0.1,0-0.1-0.1-0.1
		c-0.4-0.1-0.8-0.2-1.2-0.3c-0.1,0-0.2,0-0.3-0.1c0,0-0.1,0-0.1,0c-0.1,0-0.2,0-0.3,0.2C29.5,1.1,29.5,1.2,29.6,1.4z M30.3,1.7
		c-0.1,0.1-0.2,0.1-0.3,0.2c-0.1,0-0.1,0.1-0.2,0.2c-0.1,0.4-0.1,0.9,0.2,1.2c0.1,0.1,0.1,0.1,0.2,0.1c0,0,0,0,0,0
		c0.1,0,0.1-0.1,0.1-0.1c0-0.5,0-0.9,0-1.4C30.3,1.8,30.3,1.7,30.3,1.7z"/>
	<path class="st0" d="M2.5,3.6c0.2-0.1,0.3-0.3,0.6-0.7c0,0.1,0,0.3,0,0.4C3,3.7,2.8,4,2.5,4.2C1.7,4.7,0.8,4.4,0.3,3.8
		c-0.5-0.7-0.5-1.7,0.4-2.4C0.9,1.3,1,1.2,1.2,1.2c0,0,0.1,0,0.1,0C1.1,1.3,0.9,1.5,0.7,1.8c0.4-0.2,0.8-0.3,1.1-0.5
		c0,0,0,0.1,0,0.1c0,0.5,0,0.9,0,1.4c0,0.1,0,0.1-0.1,0.2C1.6,3.1,1.3,3.3,1.1,3.4c0,0-0.1,0-0.1,0c0,0,0,0,0,0.1
		c0.4,0.4,0.8,0.5,1.3,0.3C2.4,3.7,2.4,3.7,2.5,3.6C2.4,3.3,2.4,3,2.4,2.7c0-0.1,0-0.1-0.1-0.1C2.3,2.5,2.2,2.4,2.1,2.3
		c0.1-0.1,0.2-0.1,0.2-0.2C2.4,2.1,2.4,2,2.4,1.9c0-0.2,0-0.4,0-0.5c0,0,0-0.1-0.1-0.1C1.9,1.2,1.4,1,0.9,0.9c-0.1,0-0.2,0-0.3,0
		c-0.2,0-0.3,0.3-0.2,0.5c0,0,0,0,0,0C0.3,1.3,0.2,1.2,0.2,1C0.1,0.7,0.2,0.4,0.5,0.3C0.7,0.1,1,0.1,1.2,0.2
		c0.3,0.1,0.6,0.2,0.9,0.3c0.1,0,0.3,0.1,0.4,0.1c0,0,0.1,0,0.1,0c0.2-0.1,0.2-0.2,0.1-0.3C2.6,0.1,2.6,0.1,2.5,0.1c0,0-0.1,0-0.1,0
		C2.5,0,2.6,0,2.7,0c0.1,0,0.1,0,0.2,0.1c0.3,0.1,0.3,0.4,0.3,0.6C3.1,1,2.9,1.2,2.5,1.3c-0.1,0-0.1,0-0.1,0.1c0,0.2,0,0.4,0,0.6
		c0,0.1,0,0.1,0.1,0.1c0.1,0.1,0.2,0.2,0.3,0.3C2.7,2.4,2.6,2.5,2.5,2.6c0,0-0.1,0.1-0.1,0.1C2.5,3,2.5,3.3,2.5,3.6
		C2.5,3.6,2.5,3.6,2.5,3.6z M1.2,1.7C1.1,1.7,0.9,1.8,0.8,1.9C0.7,1.9,0.7,1.9,0.7,2C0.6,2.4,0.6,2.9,0.9,3.3
		c0.1,0.1,0.1,0.1,0.2,0.1c0,0,0,0,0,0c0.1,0,0.1-0.1,0.1-0.1c0-0.5,0-0.9,0-1.4C1.2,1.8,1.2,1.7,1.2,1.7z"/>
	<path class="st0" d="M9.3,1.2c0,0.3,0,0.6,0,0.9c0,0.4,0,0.8,0,1.3c0,0.1,0,0.1,0.1,0.1C9.6,3.5,9.8,3.7,10,3.9
		c0.1-0.1,0.1-0.1,0.2-0.2c0,0,0,0,0,0c0,0,0,0,0,0C10.1,3.8,10,4,9.9,4.1C9.8,4.2,9.7,4.3,9.6,4.4c-0.1,0-0.1-0.1-0.1-0.1
		C9.3,4.2,9.2,4.2,9,4.2c-0.1,0-0.2,0.1-0.2,0.2c0,0.1,0,0.2,0.1,0.3C8.9,4.8,9,4.8,9.2,4.8c-0.2,0-0.4,0-0.5-0.1
		c-0.5-0.3-0.3-0.9,0-1.1C8.8,3.5,9,3.5,9.2,3.5c0.1,0,0.1,0,0.1-0.1c0-0.3,0-0.6,0-0.8c0-0.1,0-0.1-0.1-0.1c0,0,0,0-0.1,0
		C8.9,2.5,8.9,2.6,9,2.8c0,0,0,0,0,0c-0.2,0-0.4-0.2-0.4-0.4c0-0.2,0.1-0.4,0.3-0.5C9,1.8,9.1,1.8,9.2,1.8c0,0,0.1,0,0.1-0.1
		C9.3,1.6,9.3,1.4,9.3,1.2C9.3,1,9.1,0.9,9,0.8c-0.1,0-0.1,0-0.2,0.1C8.7,1,8.7,1,8.7,1.1C8.6,0.9,8.7,0.5,9,0.4
		c0.2-0.2,0.5-0.1,0.7,0.1c0.1,0.1,0.1,0.2,0.2,0.3c0.4,0.7,0.8,1.5,1.2,2.2c0,0,0,0,0,0c0-0.1,0-1.5,0-1.8c-0.2,0-0.4-0.1-0.6-0.3
		C10.5,1,10.4,1,10.4,1.1c0-0.1,0.3-0.5,0.7-0.8c0,0,0.1,0,0.1,0.1c0.1,0.1,0.2,0.1,0.3,0.1c0.2,0,0.3-0.1,0.4-0.3c0,0,0,0,0,0
		c0,0,0,0.1,0.1,0.1c0.1,0.3-0.1,0.7-0.6,0.8c0,0,0,0-0.1,0c-0.1,0-0.1,0-0.1,0.1c0,0.3,0,0.6,0,0.8c0,0.7,0,1.5,0,2.2
		c0,0,0,0,0,0.1c0,0,0,0.1,0,0.1c0,0-0.1,0-0.1,0c0,0,0-0.1,0-0.1c-0.5-1-1.1-2-1.6-3C9.4,1.3,9.3,1.3,9.3,1.2
		C9.3,1.2,9.3,1.2,9.3,1.2z"/>
	<path class="st0" d="M16.1,2.1c0.2-0.2,0.3-0.3,0.5-0.5c0,0,0.1,0,0.1,0C16.8,1.8,17,1.9,17.1,2c0,0,0,0,0,0c0,0,0.1-0.1,0.1-0.1
		c0,0,0-0.1,0.1,0c0,0,0,0-0.1,0.1C17.2,2,17.1,2.1,17,2.2c0,0-0.1,0.1-0.1,0.1c0,0.4,0,0.8,0,1.2c0,0.1,0,0.1-0.1,0.1
		c-0.4,0.2-0.7,0.4-1,0.6c-0.1,0-0.1,0-0.1,0c-0.2-0.1-0.3-0.3-0.5-0.4c0,0-0.1,0-0.1,0c-0.2,0.1-0.3,0.3-0.5,0.4c0,0-0.1,0-0.1,0
		C14.3,4.3,14.2,4.1,14,4C13.9,4,13.9,4,13.8,4c0,0-0.1,0.1-0.1,0.1c0,0,0,0-0.1,0c0-0.1,0.1-0.1,0.1-0.1c0.1,0,0.1-0.1,0.1-0.2
		c0-0.4,0-0.8,0-1.2c0-0.2-0.1-0.3-0.2-0.5c0,0-0.1-0.1-0.1-0.1c-0.2-0.2-0.2-0.5,0-0.7c0.1-0.2,0.3-0.3,0.5-0.3c0,0,0,0.1-0.1,0.1
		c-0.1,0.1-0.1,0.3,0,0.4c0,0.1,0.1,0.1,0.2,0.1c0.1,0.1,0.1,0.1,0.2,0.2c0.1,0.1,0.2,0.2,0.2,0.4c0,0.4,0,0.9,0,1.3
		c0,0.1,0,0.1,0.1,0.2c0.1,0.1,0.2,0.1,0.2,0.2c0,0,0,0.1,0.1,0c0,0,0.1,0,0.1-0.1c0,0,0,0,0-0.1c0-0.5,0-0.9,0-1.4
		c0-0.1,0-0.1-0.1-0.2c-0.1,0-0.1-0.1-0.2-0.1c0.2-0.2,0.3-0.3,0.5-0.5c0,0,0.1,0,0.1,0c0.1,0.1,0.3,0.3,0.4,0.4c0,0,0,0.1,0,0.1
		c0,0,0,0,0,0c-0.1,0.1-0.1,0.2-0.1,0.3c0,0.4,0,0.8,0,1.1c0,0.1,0,0.1,0.1,0.1C15.9,3.8,16,3.9,16.1,4c0,0,0,0.1,0.1,0
		c0,0,0.1-0.1,0.1-0.1c0,0,0,0,0,0c0-0.5,0-1,0-1.5c0-0.1,0-0.1-0.1-0.2C16.2,2.2,16.1,2.2,16.1,2.1z"/>
	<path class="st0" d="M33.8,2.1c-0.1,0.1-0.1,0.1-0.2,0.2c0,0,0,0-0.1,0c0,0,0,0,0,0c0.1-0.1,0.3-0.3,0.4-0.4
		c0.1-0.1,0.1-0.1,0.2-0.2c0.2,0.2,0.3,0.3,0.5,0.5C35,2,35.2,1.8,35.4,1.6c0.2,0.2,0.3,0.3,0.5,0.5C36,2.1,36,2,36.1,1.9
		c0.1-0.1,0.2-0.2,0.4-0.3c0.1-0.1,0.1-0.1,0.1,0C36.7,1.8,36.9,2,37,2.1c0.1,0,0.2-0.1,0.3-0.2c0,0,0,0,0,0c0,0,0,0-0.1,0
		C37.1,2.1,37,2.2,37,2.4c0,0.4,0,0.7,0,1.1c0,0.1,0,0.1,0.1,0.2c0.1,0.1,0.1,0.1,0.2,0.2c0,0,0.1-0.1,0.1-0.1c0,0,0,0,0,0
		c0,0,0,0,0,0c0,0-0.1,0.1-0.1,0.1C37.2,4,37,4.2,36.9,4.3c-0.1,0.1-0.1,0.1-0.1,0c-0.1-0.2-0.3-0.3-0.4-0.5c0,0,0-0.1,0-0.1
		c0.1,0,0.1-0.1,0.1-0.2c0-0.3,0-0.7,0-1c0-0.1,0-0.1-0.1-0.1c-0.1-0.1-0.2-0.2-0.3-0.3c0,0-0.1,0-0.1,0.1c0,0,0,0.1,0,0.1
		c0,0.5,0,0.9,0,1.4c0,0,0,0.1,0,0.1c0,0,0.1,0.1,0.1,0.2c-0.2,0.2-0.3,0.3-0.5,0.5c-0.1-0.2-0.3-0.3-0.5-0.5c0,0,0,0,0,0
		c0.1-0.1,0.1-0.2,0.1-0.3c0-0.3,0-0.7,0-1c0-0.1,0-0.1-0.1-0.1C35.1,2.3,35,2.2,35,2.1c0,0-0.1,0-0.1,0c-0.1,0-0.1,0.1-0.1,0.2
		c0,0.4,0,0.9,0,1.3c0,0.1,0,0.1,0.1,0.2c0,0,0.1,0.1,0.1,0.1c0,0,0,0,0,0.1c-0.2,0.2-0.3,0.3-0.5,0.5C34.3,4.2,34.2,4,34,3.8
		c0,0,0,0,0,0c0.1-0.1,0.1-0.2,0.1-0.3c0-0.3,0-0.7,0-1c0-0.1,0-0.1-0.1-0.1C34,2.3,33.9,2.2,33.8,2.1z"/>
	<path class="st0" d="M4.2,0.2c0,0.6,0,1.3,0,1.9c0.1-0.1,0.2-0.2,0.3-0.3c0.1-0.1,0.2-0.2,0.3-0.3C4.9,1.7,5,1.7,5,1.8
		C5.1,1.9,5.2,2,5.3,2.1c0,0,0.1,0,0.1,0c0,0,0.1-0.1,0.1-0.1c0,0,0,0,0.1,0c0,0-0.1,0.1-0.1,0.1c-0.1,0-0.1,0.1-0.1,0.2
		c0,0.5,0,0.9,0,1.4c0,0.2,0,0.4,0,0.5C5.2,4.8,4.6,5,4.2,5c0,0,0,0,0,0c0.1,0,0.3-0.1,0.3-0.2c0.1-0.1,0.1-0.2,0.2-0.3
		C4.7,4.2,4.7,4,4.7,3.7c0-0.4,0-0.8,0-1.2c0-0.1,0-0.1-0.1-0.2C4.6,2.2,4.5,2.1,4.4,2c0,0-0.1,0-0.1,0.1C4.2,2.2,4.2,2.2,4.2,2.3
		c0,0.4,0,0.8,0,1.3c0,0.1,0.1,0.2,0.2,0.3c0,0,0,0,0.1,0c0,0,0.1-0.1,0.1-0.1c0,0,0,0,0,0.1C4.3,4,4.1,4.2,3.9,4.3c0,0-0.1,0-0.1,0
		C3.7,4.2,3.5,4.1,3.4,4c0,0-0.1,0-0.1,0c0,0-0.1,0.1-0.1,0.1c0,0,0,0,0-0.1c0.1-0.1,0.2-0.1,0.2-0.2c0,0,0.1-0.1,0.1-0.1
		c0-0.9,0-1.7,0-2.6c0-0.1,0-0.2-0.2-0.2C3.6,0.6,3.9,0.4,4.2,0.2z"/>
	<path class="st0" d="M23.5,2.2c0.1-0.1,0.1-0.1,0.2-0.2c0,0,0,0,0,0c0,0,0,0,0,0c0,0-0.1,0.1-0.1,0.1c-0.1,0-0.1,0.1-0.1,0.2
		c0,0.4,0,0.9,0,1.3c0,0.1,0,0.1-0.1,0.2c-0.3,0.2-0.7,0.4-1,0.6c-0.1,0.1-0.1,0.1-0.1,0c-0.2-0.2-0.4-0.3-0.5-0.5
		c-0.1-0.1-0.1-0.1-0.1,0c0,0,0,0-0.1,0.1c0,0,0,0,0,0c0,0,0,0,0,0c0,0,0.1-0.1,0.1-0.1c0.1,0,0.1-0.1,0.1-0.1c0-0.5,0-0.9,0-1.4
		c0-0.1,0-0.1,0.1-0.2C22,2,22.3,1.8,22.6,1.7c0.1-0.1,0.1-0.1,0.2,0C23,1.9,23.3,2,23.5,2.2z M22.3,1.9C22.3,2,22.3,2,22.3,1.9
		c0,0.5,0,1,0,1.5c0,0.1,0,0.1,0.1,0.1c0.2,0.1,0.3,0.3,0.5,0.4c0,0,0,0,0.1,0c0,0,0-0.1,0-0.1c0-0.4,0-0.9,0-1.3
		c0-0.1,0-0.2-0.1-0.2C22.6,2.2,22.5,2.1,22.3,1.9z"/>
	<path class="st0" d="M41.5,1.5c0.1,0.1,0.1,0.2,0.1,0.3c0,0.2-0.1,0.3-0.2,0.4c-0.1,0.1-0.1,0.2-0.2,0.3c0.1,0.1,0.2,0.2,0.4,0.3
		c0.1,0,0.1,0.1,0.1,0.2c0,0.3,0,0.5,0,0.8c0,0,0,0.1,0,0.1c-0.3,0.2-0.6,0.4-1,0.6c-0.1,0-0.1-0.1-0.1-0.1
		c-0.1-0.1-0.1-0.1-0.2-0.1c-0.1,0-0.2,0.1-0.2,0.1c0,0.1,0,0.2,0.1,0.2c0,0,0.1,0,0.1,0.1c-0.1,0-0.1,0-0.1,0
		c-0.3-0.1-0.4-0.4-0.3-0.7c0-0.1,0.1-0.2,0.1-0.2c0.1-0.1,0.2-0.2,0.3-0.3c0.1-0.1,0.1-0.1,0-0.1C40.1,3.1,40,3.1,39.9,3
		c0,0-0.1-0.1-0.1-0.1c0-0.2,0-0.4,0-0.6c0,0,0-0.1,0.1-0.1c0.3-0.2,0.6-0.3,0.9-0.5c0,0,0.1,0,0.1,0c0,0.1,0.1,0.1,0.2,0.1
		c0.1,0,0.2,0,0.3,0C41.5,1.7,41.5,1.6,41.5,1.5z M39.9,3.8c0,0,0.1-0.1,0.1-0.1c0.1-0.1,0.3-0.2,0.5-0.1c0.2,0,0.3,0.1,0.4,0.3
		c0,0,0.1,0.1,0.1,0.2c0-0.3,0-0.6,0-0.9c0,0,0,0,0-0.1C40.9,3,40.8,3,40.7,2.9C40.1,3.4,39.9,3.6,39.9,3.8z M40.4,1.9
		C40.4,2,40.4,2,40.4,1.9c0,0.2,0,0.3,0,0.5c0,0.1,0,0.2,0,0.2c0,0.1,0.1,0.1,0.2,0.2c0,0,0.1,0,0.1,0c0.2-0.2,0.4-0.4,0.5-0.6
		c0,0,0.1-0.1,0.1-0.2c-0.2,0.1-0.3,0.2-0.5,0.2C40.7,2.2,40.5,2.1,40.4,1.9z"/>
	<path class="st0" d="M27,3.8c-0.2,0.2-0.5,0.4-0.7,0.6c-0.1-0.1-0.2-0.2-0.4-0.3c-0.1-0.1-0.1-0.1-0.2,0c0,0,0,0,0,0c0,0,0,0-0.1,0
		c0,0,0,0,0,0c0.1-0.1,0.2-0.1,0.2-0.2c0,0,0.1-0.1,0.1-0.1c0-0.9,0-1.7,0-2.6c0-0.1,0-0.1,0-0.2c0-0.1-0.1-0.2-0.2-0.2
		c0.1-0.1,0.7-0.5,0.8-0.6c0,0,0,0.1,0,0.1c0,1.1,0,2.2,0,3.3c0,0.1,0,0.1,0.1,0.2c0,0,0.1,0.1,0.1,0.1c0.1,0.1,0.1,0.1,0.1,0
		C26.9,3.8,27,3.8,27,3.8C27,3.8,27,3.8,27,3.8z"/>
	<path class="st0" d="M7.1,1.6C7.2,1.8,7.3,2,7.4,2.1c0.1,0.1,0.1,0.2,0.2,0.3c0,0.1,0.1,0.1,0,0.1C7.2,2.8,6.9,3,6.6,3.2
		c-0.1,0.1-0.1,0.2,0,0.3C6.8,3.7,6.9,3.8,7,3.9c0,0,0.1,0,0.1,0c0.2-0.1,0.3-0.3,0.5-0.4c0,0,0,0,0.1,0c0,0,0,0,0,0c0,0,0,0,0,0
		c0,0,0,0,0,0C7.3,3.8,7,4.1,6.7,4.4c-0.1,0.1-0.1,0.1-0.1,0C6.4,4.2,6.2,4,6,3.9C5.9,3.8,6,3.8,5.9,3.9c0,0-0.1,0.1-0.1,0.1
		c0,0,0,0-0.1,0c0,0,0.1-0.1,0.1-0.1c0.1,0,0.1-0.1,0.1-0.2c0-0.4,0-0.9,0-1.3c0-0.1,0-0.1,0.1-0.1C6.3,2.1,6.7,1.9,7.1,1.6
		C7,1.6,7,1.6,7.1,1.6z M6.6,2c0,0.1,0,1.1,0,1.2c0,0,0,0,0,0C6.8,3.1,6.9,3,7,2.9c0.1,0,0-0.1,0-0.1C6.9,2.5,6.8,2.3,6.6,2
		C6.6,2,6.6,2,6.6,2z"/>
	<path class="st0" d="M12.9,4c0.2-0.1,0.4-0.3,0.5-0.4c0,0,0.1-0.1,0.1-0.1c0,0,0,0.1-0.1,0.1c-0.3,0.3-0.6,0.5-1,0.8
		c-0.1,0.1-0.1,0.1-0.1,0C12.2,4.2,12,4,11.8,3.9c-0.1-0.1-0.1-0.1-0.1,0c0,0-0.1,0.1-0.1,0.1c0,0,0,0,0-0.1c0,0,0,0,0.1,0
		c0.1-0.1,0.1-0.2,0.1-0.3c0-0.4,0-0.8,0-1.3c0-0.1,0-0.1,0.1-0.1c0.3-0.2,0.7-0.4,1-0.6c0,0,0.1,0,0.1-0.1c0.1,0.2,0.3,0.5,0.4,0.7
		c0,0.1,0.1,0.1,0.1,0.2c0,0.1-0.1,0.1-0.2,0.1c-0.3,0.2-0.5,0.4-0.8,0.6c-0.1,0.1-0.1,0.2,0,0.3C12.6,3.7,12.7,3.8,12.9,4z
		 M12.9,2.9C12.8,2.6,12.4,2,12.4,2c0,0.4,0,0.8,0,1.2c0,0,0,0,0,0c0,0,0,0,0,0C12.6,3.1,12.7,3,12.9,2.9z"/>
	<path class="st0" d="M38.9,4c0.2-0.2,0.4-0.3,0.6-0.5c0,0,0,0.1,0,0.1c-0.3,0.3-0.7,0.6-1,0.8c0,0-0.1,0-0.1,0
		C38.2,4.2,38,4,37.9,3.9c-0.1-0.1-0.1-0.1-0.1,0c0,0-0.1,0.1-0.1,0.1c0,0,0,0,0-0.1c0,0,0.1-0.1,0.1-0.1c0.1,0,0.1-0.1,0.1-0.1
		c0-0.4,0-0.9,0-1.3c0-0.1,0-0.1,0.1-0.1c0.3-0.2,0.6-0.4,1-0.5c0,0,0,0,0.1,0c0,0,0.1,0,0.1,0c0.1,0.2,0.2,0.3,0.3,0.5
		c0.1,0.1,0.1,0.2,0.2,0.3c0,0,0,0.1,0,0.1c-0.3,0.2-0.6,0.4-0.9,0.7c-0.1,0.1-0.1,0.1-0.1,0.2c0,0,0,0,0,0.1
		C38.6,3.7,38.8,3.8,38.9,4z M38.9,2.9c-0.2-0.3-0.3-0.6-0.5-0.9c0,0.4,0,0.8,0,1.3C38.6,3.1,38.8,3,38.9,2.9z"/>
	<path class="st0" d="M24.4,1.6c0.1,0.2,0.3,0.3,0.4,0.4c0.1-0.1,0.3-0.2,0.4-0.4c0.1-0.1,0.1-0.1,0.1,0c0.1,0,0.2,0.1,0.3,0.1
		c0.1,0,0.1-0.1,0.2-0.1c0,0.1,0,0.1,0,0.1c0,0.2-0.1,0.4-0.3,0.5c-0.2,0.1-0.4,0.1-0.5,0c0,0-0.1-0.1-0.1-0.1c0,0,0,0,0,0.1
		c0,0.5,0,0.9,0,1.4c0,0.1,0,0.1,0.1,0.1C25,3.8,25,3.9,25.1,3.9c0.1,0,0.1-0.1,0.2-0.2c0,0,0,0,0,0c0,0,0,0,0,0.1
		c-0.2,0.2-0.4,0.4-0.6,0.5c0,0-0.1,0-0.1,0c-0.1-0.1-0.3-0.3-0.4-0.4c-0.1-0.1-0.1-0.1-0.1,0C24,4,24,4,23.9,4.1c0,0,0,0,0,0
		c0,0,0,0,0,0C24,4,24,3.9,24.1,3.9c0.1-0.1,0.1-0.1,0.1-0.2c0-0.4,0-0.8,0-1.1c0-0.1,0-0.1-0.1-0.2c0,0-0.1-0.1-0.1-0.1
		c0-0.1,0-0.1-0.1,0c0,0-0.1,0.1-0.1,0.1c0,0,0,0,0,0c0,0,0,0,0,0C23.8,2.1,23.9,2.1,24,2C24.1,1.9,24.3,1.7,24.4,1.6z"/>
	<path class="st0" d="M27.4,1.6c0.3,0.2,0.5,0.2,0.8,0c0,0.3-0.1,0.5-0.4,0.7c-0.1,0.1-0.3,0.1-0.5,0c-0.1,0-0.1-0.1-0.2-0.1
		c0,0,0,0-0.1,0c0,0,0,0,0,0.1c0,0,0,0,0,0c0.3,0.5,0.7,1.1,1,1.6c0,0,0,0,0,0c0.1,0,0.1-0.1,0.2-0.1c0,0,0,0,0,0c0,0,0,0,0,0
		c0,0,0,0,0,0c0,0,0,0,0,0c-0.2,0.2-0.5,0.4-0.7,0.6c0,0,0,0,0,0c-0.1-0.1-0.2-0.3-0.3-0.4c-0.2-0.4-0.5-0.8-0.7-1.2
		c0-0.1,0-0.1,0-0.2C26.9,2.3,27.2,2,27.4,1.6C27.4,1.6,27.4,1.6,27.4,1.6z"/>
	<path class="st0" d="M33.6,3.9c0.1,0,0.1-0.1,0.2-0.2c0,0,0,0,0,0.1c-0.2,0.2-0.4,0.4-0.6,0.6c0,0-0.1,0-0.1-0.1
		C33,4.2,32.9,4.1,32.8,4c0,0-0.1-0.1-0.1-0.1c0,0-0.1,0.1-0.1,0.1c0,0,0,0.1-0.1,0.1c0,0,0,0,0-0.1c0,0,0.1-0.1,0.1-0.1
		c0,0,0-0.1,0-0.1c0-0.4,0-0.9,0-1.3c0,0,0-0.1,0-0.1c-0.1-0.1-0.2-0.2-0.2-0.3c-0.1,0-0.1,0.1-0.2,0.1c0,0,0,0,0,0c0,0,0,0,0,0
		c0.2-0.2,0.4-0.4,0.6-0.5C33,1.8,33.2,2,33.3,2.2c0.1,0,0.1-0.1,0.2-0.2c0,0.1,0,0.1,0,0.1c-0.1,0.1-0.2,0.2-0.2,0.4
		c0,0.4,0,0.7,0,1.1c0,0.1,0,0.1,0.1,0.2C33.5,3.8,33.5,3.8,33.6,3.9z"/>
	<path class="st0" d="M32.6,1.1c0.2-0.1,0.3-0.3,0.4-0.4c0,0,0.1,0,0.1,0c0.1,0.1,0.2,0.3,0.4,0.4c-0.2,0.2-0.3,0.3-0.5,0.4
		C32.8,1.3,32.7,1.2,32.6,1.1z"/>
</g>
</svg>
