<?xml version="1.0" encoding="utf-8"?>
<!-- Generator: Adobe Illustrator 25.0.0, SVG Export Plug-In . SVG Version: 6.00 Build 0)  -->
<svg version="1.1" id="Camada_1" xmlns="http://www.w3.org/2000/svg" xmlns:xlink="http://www.w3.org/1999/xlink" x="0px" y="0px"
	 viewBox="0 0 76 18.9" style="enable-background:new 0 0 76 18.9;" xml:space="preserve">
<style type="text/css">
	.st0{fill:#2294D1;}
	.st1{fill:#505D63;}
</style>
<g>
	<path class="st0" d="M50.2,18.9c0-0.2-0.2-0.1-0.3-0.2c-1.2-0.2-2.4-0.7-3.4-1.5c-1.9-1.5-2.5-3.5-2.3-5.8c0.2-3.2,2.5-5.5,6.2-6
		c1.5-0.2,3-0.2,4.4,0.2c3.4,0.8,5.3,3.6,5,7c-0.3,3.3-2.3,5.4-5.7,6c-0.1,0-0.2,0-0.3,0.1c0,0,0,0,0,0c0,0,0,0,0,0.1
		C52.6,18.9,51.4,18.9,50.2,18.9z M54.2,12.2c0-0.6-0.1-1.2-0.3-1.8c-0.7-1.4-2.6-1.7-3.6-0.4c-0.8,1-0.8,3.2,0,4.3
		c1,1.3,3,1.1,3.6-0.4C54.1,13.3,54.2,12.7,54.2,12.2z"/>
	<path class="st0" d="M0,5.7c0.7,0,1.5,0,2.2,0c0.3,0,0.4-0.1,0.4-0.4c0-0.8,0-1.6,0-2.4c0-0.3,0.1-0.3,0.3-0.4C4.5,2,6,1.6,7.6,1.1
		C7.8,1,7.9,1,7.9,1.3c0,1.3,0,2.7,0,4c0,0.3,0.1,0.4,0.4,0.4c0.8,0,1.6,0,2.4,0c0.2,0,0.3,0,0.3,0.3c0,1,0,1.9,0,2.9
		c0,0.3-0.1,0.3-0.3,0.3c-0.8,0-1.6,0-2.5,0C8,9.3,7.9,9.3,7.9,9.6c0,1.4,0,2.9,0,4.3c0,0.9,0.4,1.3,1.2,1.3c0.5,0,1,0,1.5-0.1
		c0.2,0,0.3,0,0.3,0.2c0,0.9,0.1,1.9,0.2,2.8c0,0.2-0.1,0.3-0.3,0.3c-0.6,0.1-1.2,0.2-1.8,0.3c0,0,0,0,0,0c-0.1,0,0,0.1,0,0.1
		c-0.6,0-1.3,0-1.9,0c0,0,0,0,0-0.1c0,0,0,0,0,0c-0.5-0.1-0.9-0.1-1.4-0.2c-1.6-0.3-2.7-1.1-3.1-2.8c-0.1-0.5-0.2-0.9-0.2-1.4
		c0-1.6,0-3.2,0-4.8c0-0.2,0-0.3-0.3-0.3c-0.7,0-1.4,0-2.1,0C0,8.1,0,6.9,0,5.7z"/>
	<path class="st0" d="M39.1,18.9c0-0.2-0.2-0.1-0.3-0.1c-0.7-0.1-1.4-0.2-2.1-0.5c-1.4-0.6-2-1.7-2.2-3.1c-0.1-1.2,0-2.5-0.1-3.7
		c0-0.6,0-1.2,0-1.8c0-0.3-0.1-0.4-0.4-0.4c-0.6,0-1.2,0-1.7,0c-0.2,0-0.3,0-0.3-0.3c0-1,0-1.9,0-2.9c0-0.3,0.1-0.3,0.3-0.3
		c0.6,0,1.3,0,1.9,0c0.3,0,0.4-0.1,0.4-0.4c0-0.8,0-1.6,0-2.4c0-0.2,0.1-0.4,0.3-0.4c1.6-0.5,3.1-1,4.7-1.4c0.2-0.1,0.3,0,0.3,0.2
		c0,1.4,0,2.7,0,4.1c0,0.3,0.1,0.3,0.3,0.3c0.8,0,1.6,0,2.4,0c0.3,0,0.4,0.1,0.4,0.3c0,1,0,1.9,0,2.9c0,0.2-0.1,0.3-0.3,0.3
		c-0.8,0-1.7,0-2.5,0c-0.2,0-0.3,0-0.3,0.3c0,1.4,0,2.9,0,4.3c0,1,0.4,1.4,1.4,1.4c0.5,0,0.9,0,1.4-0.1c0.2,0,0.3,0,0.3,0.2
		c0,1,0.1,1.9,0.2,2.9c0,0.2-0.1,0.2-0.2,0.2c-0.6,0.1-1.2,0.2-1.8,0.3c0,0,0,0,0,0c-0.1,0,0,0.1,0,0.1
		C40.3,18.9,39.7,18.9,39.1,18.9z"/>
	<path class="st0" d="M69.8,18.9c0.1-0.1,0-0.1-0.1-0.1c-2.7-0.4-4-2.3-4.4-4.7c-0.3-1.7-0.2-3.5,0.6-5.1C67.2,6.1,70.4,5,73,6.5
		c0.8,0.5,1.4,1.1,1.8,1.9c-0.1-2.8,0-5.6,0-8.5c0.4,0,0.7,0,1.1,0C76,0,76,0,76,0.2c0,0.1,0,0.1,0,0.2c0,6.1,0,12.2,0,18.3
		c-0.3-0.1-0.8,0.2-1-0.1c-0.2-0.3-0.1-0.7-0.1-1.1c0,0,0-0.1,0-0.1c0-0.4,0-0.8,0-1.2c-0.9,1.4-2,2.4-3.6,2.7c-0.1,0-0.2,0,0,0.1
		C70.7,18.9,70.3,18.9,69.8,18.9z M66.4,12.3c0,1.4,0.3,2.7,1.1,3.9c0.7,1,1.7,1.6,3,1.6c1.7,0,3.2-0.9,3.9-2.7
		C75.1,13.1,75,11,74.1,9c-0.4-0.9-1.1-1.5-2-1.9c-2-0.8-4.2,0.1-5.1,2.1C66.5,10.2,66.4,11.3,66.4,12.3z"/>
	<path class="st0" d="M25,8.5c0.2-0.3,0.3-0.6,0.5-0.8c1-1.3,2.2-2.1,3.9-2c0.8,0,0.8,0,0.8,0.9c0,0.8-0.1,1.6-0.1,2.4
		c0,0.3-0.1,0.4-0.4,0.3c-0.9-0.1-1.8,0.1-2.7,0.5c-0.6,0.3-1,0.7-1.2,1.4c-0.3,1-0.4,2-0.5,3.1c0,1.4,0,2.8,0,4.2
		c0,0.3-0.1,0.4-0.4,0.4c-1.6,0-3.2,0-4.7,0c-0.3,0-0.4-0.1-0.4-0.4c0-2.2,0-4.5,0-6.7c0-1.8,0-3.6-0.1-5.5c0-0.2,0.1-0.3,0.3-0.3
		c1.5,0,3,0,4.5,0c0.2,0,0.3,0.1,0.3,0.3c0,0.7,0.1,1.3,0.1,2C25,8.1,25,8.3,25,8.5z"/>
	<path class="st0" d="M12.8,12.1c0-2,0-4,0-6c0-0.3,0.1-0.4,0.4-0.4c1.6,0,3.1,0,4.7,0c0.3,0,0.4,0.1,0.4,0.4c0,4.1,0,8.1,0,12.2
		c0,0.2-0.1,0.3-0.3,0.3c-1.6,0-3.3,0-4.9,0c-0.3,0-0.3-0.2-0.3-0.4C12.8,16.2,12.8,14.2,12.8,12.1z"/>
	<path class="st1" d="M15.4,4.3c-0.8,0-1.6,0-2.4,0c-0.3,0-0.4-0.1-0.4-0.4c0-0.4-0.1-0.9,0.1-1.2c0.2-0.3,0.7-0.3,1.1-0.4
		c1.3-0.4,2.6-0.8,3.9-1.2c0.3-0.1,0.4,0,0.4,0.3c0,0.9,0,1.8,0,2.7c0,0.2-0.1,0.3-0.3,0.3C17,4.3,16.2,4.3,15.4,4.3z"/>
	<path class="st0" d="M64.2,12.4c0,1.9,0,3.9,0,5.8c0,0.3-0.1,0.4-0.4,0.4c-0.7,0-0.7,0-0.7-0.7c0-3.8,0-7.5,0-11.3
		c0-0.4,0.1-0.5,0.5-0.5c0.6,0,0.6,0,0.6,0.6C64.2,8.6,64.2,10.5,64.2,12.4z"/>
	<path class="st0" d="M60.2,17.8c0-0.8,0-0.8,0.8-0.8c0.7,0,0.7,0,0.7,0.7c0,0.9,0,0.9-0.9,0.9C60.2,18.6,60.2,18.6,60.2,17.8z"/>
	<path class="st0" d="M64.4,2.3c0,0.9,0,0.9-0.8,0.8c-0.6,0-0.5,0.1-0.6-0.6c0-0.3,0-0.6,0-0.8c0-0.2,0.1-0.3,0.3-0.3
		c0.1,0,0.2,0,0.3,0C64.4,1.4,64.4,1.4,64.4,2.3z"/>
</g>
</svg>
